<svg width="92" height="68" xmlns="http://www.w3.org/2000/svg" xmlns:xlink="http://www.w3.org/1999/xlink" xml:space="preserve" overflow="hidden"><defs><clipPath id="clip0"><rect x="504" y="224" width="92" height="68"/></clipPath><clipPath id="clip1"><rect x="504" y="224" width="91" height="67"/></clipPath><clipPath id="clip2"><rect x="504" y="224" width="91" height="67"/></clipPath><clipPath id="clip3"><rect x="504" y="224" width="91" height="67"/></clipPath><clipPath id="clip4"><rect x="504" y="224" width="91" height="67"/></clipPath></defs><g clip-path="url(#clip0)" transform="translate(-504 -224)"><g clip-path="url(#clip1)"><g clip-path="url(#clip2)"><g clip-path="url(#clip3)"><g clip-path="url(#clip4)"><path d="M120.441 322.961 123.489 322.961 123.489 323.976 120.441 323.976Z" fill="#3D4647" fill-rule="evenodd" fill-opacity="1" transform="matrix(1 0 0 1.00132 408.539 -44.8933)"/><path d="M109.735 296.196 112.783 296.196 112.783 297.211 109.735 297.211Z" fill="#3D4647" fill-rule="evenodd" fill-opacity="1" transform="matrix(1 0 0 1.00132 408.539 -44.8933)"/><path d="M120.441 327.422 123.489 327.422 123.489 329.451 120.441 329.451Z" fill="#3D4647" fill-rule="evenodd" fill-opacity="1" transform="matrix(1 0 0 1.00132 408.539 -44.8933)"/><path d="M125.794 327.422 128.842 327.422 128.842 329.451 125.794 329.451Z" fill="#3D4647" fill-rule="evenodd" fill-opacity="1" transform="matrix(1 0 0 1.00132 408.539 -44.8933)"/><path d="M125.794 322.961 128.842 322.961 128.842 323.976 125.794 323.976Z" fill="#3D4647" fill-rule="evenodd" fill-opacity="1" transform="matrix(1 0 0 1.00132 408.539 -44.8933)"/><path d="M131.147 327.422 134.195 327.422 134.195 329.451 131.147 329.451Z" fill="#3D4647" fill-rule="evenodd" fill-opacity="1" transform="matrix(1 0 0 1.00132 408.539 -44.8933)"/><path d="M109.735 301.549 112.783 301.549 112.783 302.564 109.735 302.564Z" fill="#3D4647" fill-rule="evenodd" fill-opacity="1" transform="matrix(1 0 0 1.00132 408.539 -44.8933)"/><path d="M109.735 306.902 112.783 306.902 112.783 307.917 109.735 307.917Z" fill="#3D4647" fill-rule="evenodd" fill-opacity="1" transform="matrix(1 0 0 1.00132 408.539 -44.8933)"/><path d="M115.088 317.608 118.136 317.608 118.136 318.623 115.088 318.623Z" fill="#3D4647" fill-rule="evenodd" fill-opacity="1" transform="matrix(1 0 0 1.00132 408.539 -44.8933)"/><path d="M109.735 327.422 112.783 327.422 112.783 329.451 109.735 329.451Z" fill="#3D4647" fill-rule="evenodd" fill-opacity="1" transform="matrix(1 0 0 1.00132 408.539 -44.8933)"/><path d="M115.088 322.961 118.136 322.961 118.136 323.976 115.088 323.976Z" fill="#3D4647" fill-rule="evenodd" fill-opacity="1" transform="matrix(1 0 0 1.00132 408.539 -44.8933)"/><path d="M109.735 317.608 112.783 317.608 112.783 318.623 109.735 318.623Z" fill="#3D4647" fill-rule="evenodd" fill-opacity="1" transform="matrix(1 0 0 1.00132 408.539 -44.8933)"/><path d="M115.088 327.422 118.136 327.422 118.136 329.451 115.088 329.451Z" fill="#3D4647" fill-rule="evenodd" fill-opacity="1" transform="matrix(1 0 0 1.00132 408.539 -44.8933)"/><path d="M109.735 322.961 112.783 322.961 112.783 323.976 109.735 323.976Z" fill="#3D4647" fill-rule="evenodd" fill-opacity="1" transform="matrix(1 0 0 1.00132 408.539 -44.8933)"/><path d="M125.794 280.137 128.842 280.137 128.842 281.153 125.794 281.153Z" fill="#3D4647" fill-rule="evenodd" fill-opacity="1" transform="matrix(1 0 0 1.00132 408.539 -44.8933)"/><path d="M120.441 280.137 123.489 280.137 123.489 281.153 120.441 281.153Z" fill="#3D4647" fill-rule="evenodd" fill-opacity="1" transform="matrix(1 0 0 1.00132 408.539 -44.8933)"/><path d="M125.794 274.784 128.842 274.784 128.842 275.8 125.794 275.8Z" fill="#3D4647" fill-rule="evenodd" fill-opacity="1" transform="matrix(1 0 0 1.00132 408.539 -44.8933)"/><path d="M120.441 274.784 123.489 274.784 123.489 275.8 120.441 275.8Z" fill="#3D4647" fill-rule="evenodd" fill-opacity="1" transform="matrix(1 0 0 1.00132 408.539 -44.8933)"/><path d="M131.147 274.784 134.195 274.784 134.195 275.8 131.147 275.8Z" fill="#3D4647" fill-rule="evenodd" fill-opacity="1" transform="matrix(1 0 0 1.00132 408.539 -44.8933)"/><path d="M136.5 274.784 139.548 274.784 139.548 275.8 136.5 275.8Z" fill="#3D4647" fill-rule="evenodd" fill-opacity="1" transform="matrix(1 0 0 1.00132 408.539 -44.8933)"/><path d="M147.206 274.784 150.253 274.784 150.253 275.8 147.206 275.8Z" fill="#3D4647" fill-rule="evenodd" fill-opacity="1" transform="matrix(1 0 0 1.00132 408.539 -44.8933)"/><path d="M141.853 274.784 144.901 274.784 144.901 275.8 141.853 275.8Z" fill="#3D4647" fill-rule="evenodd" fill-opacity="1" transform="matrix(1 0 0 1.00132 408.539 -44.8933)"/><path d="M115.088 274.784 118.136 274.784 118.136 275.8 115.088 275.8Z" fill="#3D4647" fill-rule="evenodd" fill-opacity="1" transform="matrix(1 0 0 1.00132 408.539 -44.8933)"/><path d="M147.206 327.422 150.253 327.422 150.253 329.451 147.206 329.451Z" fill="#3D4647" fill-rule="evenodd" fill-opacity="1" transform="matrix(1 0 0 1.00132 408.539 -44.8933)"/><path d="M109.735 285.49 112.783 285.49 112.783 286.505 109.735 286.505Z" fill="#3D4647" fill-rule="evenodd" fill-opacity="1" transform="matrix(1 0 0 1.00132 408.539 -44.8933)"/><path d="M141.853 327.422 144.901 327.422 144.901 329.451 141.853 329.451Z" fill="#3D4647" fill-rule="evenodd" fill-opacity="1" transform="matrix(1 0 0 1.00132 408.539 -44.8933)"/><path d="M136.5 327.422 139.548 327.422 139.548 329.451 136.5 329.451Z" fill="#3D4647" fill-rule="evenodd" fill-opacity="1" transform="matrix(1 0 0 1.00132 408.539 -44.8933)"/><path d="M109.735 280.137 112.783 280.137 112.783 281.153 109.735 281.153Z" fill="#3D4647" fill-rule="evenodd" fill-opacity="1" transform="matrix(1 0 0 1.00132 408.539 -44.8933)"/><path d="M109.735 274.784 112.783 274.784 112.783 275.8 109.735 275.8Z" fill="#3D4647" fill-rule="evenodd" fill-opacity="1" transform="matrix(1 0 0 1.00132 408.539 -44.8933)"/><path d="M115.088 280.137 118.136 280.137 118.136 281.153 115.088 281.153Z" fill="#3D4647" fill-rule="evenodd" fill-opacity="1" transform="matrix(1 0 0 1.00132 408.539 -44.8933)"/><path d="M115.088 285.49 118.136 285.49 118.136 286.505 115.088 286.505Z" fill="#3D4647" fill-rule="evenodd" fill-opacity="1" transform="matrix(1 0 0 1.00132 408.539 -44.8933)"/><path d="M183.37 280.855 176.343 280.855 176.343 273.567C176.343 271.283 174.496 269.431 172.218 269.431L108.199 269.431C105.921 269.431 104.075 271.283 104.075 273.567L104.075 288.118C104.075 289.219 104.511 290.274 105.289 291.051 105.445 291.208 105.614 291.353 105.794 291.485 104.72 292.259 104.08 293.502 104.075 294.828L104.075 301.079 96.3529 301.079 96.3529 323.408 100.261 323.408 100.261 324.821 101.14 324.007 101.175 323.942 102.539 322.584 100.875 320.917 100.875 320.934 100.288 320.307 100.288 321.809 97.9303 321.809 97.9303 302.512 104.083 302.512 104.083 309.387C104.086 310.714 104.725 311.958 105.801 312.732 104.725 313.507 104.086 314.751 104.083 316.079L104.083 330.631C104.083 332.914 105.928 334.766 108.206 334.766L172.233 334.766C174.509 334.766 176.356 332.914 176.356 330.631L176.356 316.068C176.354 314.973 175.919 313.923 175.146 313.15 174.992 312.993 174.824 312.85 174.645 312.722 174.823 312.593 174.991 312.448 175.146 312.291 175.921 311.52 176.356 310.471 176.356 309.376L176.356 294.824C176.354 293.73 175.918 292.682 175.146 291.909 174.992 291.75 174.824 291.607 174.645 291.478 174.823 291.349 174.991 291.204 175.146 291.047 175.921 290.276 176.356 289.227 176.356 288.132L176.356 282.274 183.37 282.274 183.37 301.571 183.433 301.633 180.381 301.633 180.381 300.128 179.793 300.789 178.13 302.454 179.481 303.808 179.514 303.873 180.394 304.687 180.394 303.274 184.975 303.274 184.975 280.875ZM105.632 309.376 105.632 294.824C105.636 293.412 106.777 292.268 108.186 292.264L119.094 292.264C118.527 293.485 118.066 294.753 117.719 296.054L115.426 296.054 115.426 297.619 117.372 297.619C117.142 298.84 117.009 300.078 116.973 301.32L115.426 301.32 115.426 302.887 116.973 302.887C117.014 304.126 117.152 305.359 117.386 306.575L115.426 306.575 115.426 308.143 117.733 308.143C118.081 309.444 118.542 310.711 119.107 311.933L108.199 311.933C106.788 311.939 105.638 310.795 105.632 309.379 105.632 309.379 105.632 309.378 105.632 309.376ZM161.905 302.102C161.905 314.122 152.187 323.866 140.199 323.867 128.211 323.867 118.493 314.123 118.493 302.103 118.492 290.083 128.21 280.339 140.198 280.338 145.955 280.338 151.476 282.631 155.547 286.712 159.631 290.787 161.924 296.326 161.918 302.102ZM156.688 285.148 156.688 276.568C156.692 276.099 157.07 275.72 157.537 275.717L168.665 275.717C169.132 275.718 169.511 276.099 169.511 276.568L169.511 285.148C169.511 285.617 169.132 285.996 168.665 285.996L157.55 285.996C157.084 285.998 156.704 285.62 156.702 285.151 156.702 285.15 156.702 285.149 156.702 285.148ZM157.537 318.205 168.665 318.205C169.132 318.205 169.511 318.584 169.511 319.052 169.511 319.053 169.511 319.055 169.511 319.056L169.511 327.632C169.512 328.1 169.135 328.481 168.669 328.484 168.668 328.484 168.666 328.484 168.665 328.484L157.55 328.484C157.084 328.486 156.704 328.108 156.702 327.639 156.702 327.637 156.702 327.635 156.702 327.632L156.702 319.052C156.706 318.584 157.083 318.205 157.55 318.201ZM174.766 316.068 174.766 330.62C174.761 332.033 173.621 333.179 172.211 333.184L108.199 333.184C106.788 333.19 105.638 332.046 105.632 330.631 105.632 330.627 105.632 330.624 105.632 330.62L105.632 316.068C105.636 314.656 106.777 313.512 108.186 313.507L119.898 313.507C120.656 314.856 121.545 316.125 122.551 317.298L120.72 317.298 120.72 318.863 123.468 318.863 123.468 318.29C123.565 318.391 123.657 318.491 123.757 318.587 125.926 320.766 128.504 322.492 131.342 323.666L131.342 324.118 132.528 324.118C137.502 325.853 142.915 325.853 147.89 324.118L150.004 324.118 150.004 323.26C151.849 322.399 153.574 321.3 155.134 319.99L155.134 327.632C155.134 328.965 156.211 330.044 157.541 330.044L168.669 330.044C169.997 330.044 171.074 328.965 171.074 327.632L171.074 319.052C171.074 317.72 169.997 316.64 168.669 316.64L158.413 316.64C159.196 315.656 159.899 314.609 160.517 313.511L172.226 313.511C173.635 313.514 174.777 314.658 174.779 316.072ZM174.766 294.824 174.766 309.376C174.761 310.789 173.621 311.935 172.211 311.94L161.307 311.94C161.778 310.926 162.174 309.879 162.493 308.808L168.678 308.808C170.008 308.808 171.084 307.728 171.084 306.395L171.084 297.812C171.084 296.48 170.008 295.399 168.678 295.399L162.493 295.399C162.174 294.329 161.778 293.283 161.307 292.271L172.215 292.271C173.624 292.273 174.766 293.418 174.768 294.831ZM162.898 296.961 168.665 296.961C169.132 296.962 169.511 297.343 169.511 297.812L169.511 306.389C169.512 306.856 169.135 307.237 168.669 307.24 168.668 307.24 168.666 307.24 168.665 307.24L162.915 307.24C163.669 303.855 163.669 300.345 162.915 296.961ZM174.766 288.132C174.761 289.545 173.621 290.691 172.211 290.696L160.517 290.696C159.899 289.597 159.196 288.549 158.41 287.564L168.678 287.564C170.008 287.564 171.084 286.484 171.084 285.151L171.084 276.568C171.084 275.236 170.008 274.155 168.678 274.155L157.55 274.155C156.222 274.155 155.145 275.236 155.145 276.568L155.145 284.204C153.584 282.894 151.859 281.795 150.014 280.934L150.014 280.076 147.904 280.076C142.925 278.334 137.506 278.334 132.528 280.076L131.349 280.076 131.349 280.524C128.513 281.7 125.935 283.427 123.764 285.603L123.475 285.9 123.475 285.331 120.726 285.331 120.726 286.899 122.555 286.899C121.549 288.071 120.662 289.342 119.905 290.689L108.199 290.689C106.788 290.695 105.638 289.551 105.632 288.135 105.632 288.135 105.632 288.134 105.632 288.132L105.632 273.567C105.636 272.154 106.777 271.01 108.186 271.006L172.211 271.006C173.626 271.002 174.775 272.149 174.779 273.567Z" fill="#6CC04A" fill-rule="evenodd" fill-opacity="1" transform="matrix(1 0 0 1.00132 408.539 -44.8933)"/><path d="M150.521 295.861 152.917 293.464 149.152 289.699 146.755 292.095C145.678 291.421 144.496 290.931 143.257 290.643L143.257 287.275 137.889 287.275 137.889 290.643C136.65 290.931 135.466 291.421 134.387 292.095L131.99 289.699 128.224 293.464 130.621 295.861C129.946 296.938 129.454 298.12 129.163 299.359L125.794 299.359 125.794 304.699 129.163 304.699C129.45 305.938 129.941 307.121 130.614 308.198L128.218 310.595 131.984 314.36 134.38 311.964C135.461 312.635 136.644 313.126 137.882 313.416L137.882 316.784 143.222 316.784 143.222 313.429C144.46 313.139 145.642 312.648 146.721 311.977L149.118 314.374 152.884 310.608 150.487 308.212C151.158 307.132 151.648 305.951 151.939 304.714L155.314 304.714 155.314 299.359 151.946 299.359C151.663 298.123 151.182 296.942 150.521 295.861ZM140.593 309.413C136.515 309.416 133.208 306.111 133.206 302.033 133.203 297.955 136.508 294.647 140.587 294.646 144.665 294.643 147.972 297.947 147.974 302.025 147.974 302.028 147.974 302.03 147.974 302.033 147.972 306.111 144.665 309.416 140.587 309.413 140.577 309.413 140.568 309.413 140.559 309.413Z" fill="#3D4647" fill-rule="evenodd" fill-opacity="1" transform="matrix(1 0 0 1.00132 408.539 -44.8933)"/></g></g></g></g></g></svg>