<svg width="56" height="46" xmlns="http://www.w3.org/2000/svg" xmlns:xlink="http://www.w3.org/1999/xlink" xml:space="preserve" overflow="hidden"><defs><clipPath id="clip0"><rect x="536" y="318" width="56" height="46"/></clipPath><clipPath id="clip1"><rect x="537" y="319" width="54" height="44"/></clipPath><clipPath id="clip2"><rect x="537" y="319" width="54" height="44"/></clipPath><clipPath id="clip3"><rect x="537" y="319" width="54" height="44"/></clipPath><clipPath id="clip4"><rect x="537" y="319" width="54" height="44"/></clipPath></defs><g clip-path="url(#clip0)" transform="translate(-536 -318)"><g clip-path="url(#clip1)"><g clip-path="url(#clip2)"><g clip-path="url(#clip3)"><g clip-path="url(#clip4)"><path d="M327.483 157.581C327.176 157.581 326.93 157.827 326.93 158.134 326.93 158.431 327.176 158.676 327.483 158.676 327.78 158.676 328.025 158.431 328.025 158.134 328.035 157.827 327.79 157.581 327.483 157.581Z" fill="#3D4647" fill-rule="evenodd" fill-opacity="1" transform="matrix(1.02471 0 0 1 228.204 162.442)"/><path d="M327.483 158.676C327.78 158.676 328.025 158.431 328.025 158.134 328.025 157.827 327.78 157.581 327.483 157.581 327.176 157.581 326.93 157.827 326.93 158.134 326.94 158.431 327.186 158.676 327.483 158.676Z" fill="#3D4647" fill-rule="evenodd" fill-opacity="1" transform="matrix(1.02471 0 0 1 228.204 162.442)"/><path d="M350.373 156.558 304.848 156.558C303.201 156.558 301.86 157.914 301.86 159.602L301.86 191.608C301.86 193.285 303.201 194.642 304.848 194.652L320.934 194.652C320.934 194.693 320.924 194.725 320.924 194.766L320.924 196.692C320.924 197.406 319.481 198.649 319.051 199.28 318.928 199.384 318.836 199.529 318.836 199.695L318.836 199.891C318.836 200.191 319.082 200.44 319.379 200.44L335.485 200.44C335.781 200.44 336.027 200.191 336.027 199.891L336.027 199.695C336.027 199.519 335.935 199.373 335.812 199.27 335.393 198.639 333.95 197.396 333.95 196.682L333.95 194.766C333.95 194.725 333.94 194.693 333.94 194.652L350.373 194.652C352.031 194.642 353.371 193.285 353.371 191.608L353.371 159.602C353.371 157.914 352.041 156.558 350.373 156.558ZM327.616 157.355C327.913 157.355 328.158 157.604 328.158 157.914 328.158 158.215 327.913 158.463 327.616 158.463 327.309 158.463 327.063 158.215 327.063 157.914 327.074 157.604 327.319 157.355 327.616 157.355ZM350.854 191.939 304.378 191.939 304.378 159.271 350.854 159.271 350.854 191.939Z" fill="#6CC04A" fill-rule="evenodd" fill-opacity="1" transform="matrix(1.02471 0 0 1 228.204 162.442)"/><path d="M319.44 169.247C324.914 169.247 329.345 167.783 329.345 165.972 329.345 164.171 324.914 162.698 319.44 162.698 313.976 162.698 309.535 164.161 309.535 165.972 309.535 167.783 313.966 169.247 319.44 169.247Z" fill="#3D4647" fill-rule="evenodd" fill-opacity="1" transform="matrix(1.02471 0 0 1 228.204 162.442)"/><path d="M329.591 167.302C329.386 169.052 325.047 170.454 319.696 170.454 314.354 170.454 310.006 169.052 309.811 167.302 309.637 167.62 309.535 167.947 309.535 168.295L309.535 171.385C309.535 173.769 314.088 175.713 319.696 175.713 325.314 175.713 329.867 173.78 329.867 171.385L329.867 168.295C329.867 167.957 329.765 167.62 329.591 167.302ZM319.931 174.148 318.621 174.148 317.966 173.012 318.621 171.876 319.931 171.876 320.586 173.012 319.931 174.148ZM322.162 173.514 321.722 173.514 321.507 173.135 321.722 172.756 322.162 172.756 322.377 173.135 322.162 173.514Z" fill="#3D4647" fill-rule="evenodd" fill-opacity="1" transform="matrix(1.02471 0 0 1 228.204 162.442)"/><path d="M329.56 180.093C328.475 181.976 324.474 183.378 319.696 183.378 314.927 183.378 310.927 181.976 309.842 180.093 309.647 180.42 309.535 180.768 309.535 181.127L309.535 184.217C309.535 186.611 314.088 188.545 319.696 188.545 325.314 188.545 329.867 186.611 329.867 184.217L329.867 181.127C329.867 180.768 329.754 180.42 329.56 180.093ZM319.931 187.123 318.621 187.123 317.966 185.987 318.621 184.851 319.931 184.851 320.586 185.987 319.931 187.123ZM322.06 186.55 321.62 186.55 321.405 186.171 321.62 185.793 322.06 185.793 322.274 186.171 322.06 186.55Z" fill="#3D4647" fill-rule="evenodd" fill-opacity="1" transform="matrix(1.02471 0 0 1 228.204 162.442)"/><path d="M329.56 173.442C328.475 175.335 324.474 176.737 319.696 176.737 314.927 176.737 310.927 175.335 309.842 173.442 309.647 173.78 309.535 174.117 309.535 174.475L309.535 177.566C309.535 179.95 314.088 181.894 319.696 181.894 325.314 181.894 329.867 179.95 329.867 177.566L329.867 174.475C329.867 174.127 329.754 173.78 329.56 173.442ZM319.931 180.318 318.621 180.318 317.966 179.182 318.621 178.047 319.931 178.047 320.586 179.182 319.931 180.318ZM322.111 179.704 321.671 179.704 321.456 179.326 321.671 178.947 322.111 178.947 322.326 179.326 322.111 179.704Z" fill="#3D4647" fill-rule="evenodd" fill-opacity="1" transform="matrix(1.02471 0 0 1 228.204 162.442)"/><path d="M340.54 184.941 334.052 184.941C333.796 184.941 333.581 184.769 333.581 184.564 333.581 184.358 333.796 184.186 334.052 184.186L340.54 184.186C340.795 184.186 341.01 184.358 341.01 184.564 341.01 184.769 340.806 184.941 340.54 184.941Z" fill="#3D4647" fill-rule="evenodd" fill-opacity="1" transform="matrix(1.02471 0 0 1 228.204 162.442)"/><path d="M343.466 182.895 334.052 182.895C333.796 182.895 333.581 182.722 333.581 182.517 333.581 182.312 333.796 182.14 334.052 182.14L343.466 182.14C343.722 182.14 343.937 182.312 343.937 182.517 343.937 182.722 343.732 182.895 343.466 182.895Z" fill="#3D4647" fill-rule="evenodd" fill-opacity="1" transform="matrix(1.02471 0 0 1 228.204 162.442)"/><path d="M345.993 178.29 334.052 178.29C333.796 178.29 333.581 178.118 333.581 177.912 333.581 177.707 333.796 177.535 334.052 177.535L345.993 177.535C346.249 177.535 346.464 177.707 346.464 177.912 346.464 178.118 346.249 178.29 345.993 178.29Z" fill="#3D4647" fill-rule="evenodd" fill-opacity="1" transform="matrix(1.02471 0 0 1 228.204 162.442)"/><path d="M345.993 180.848 334.052 180.848C333.796 180.848 333.581 180.676 333.581 180.471 333.581 180.265 333.796 180.093 334.052 180.093L345.993 180.093C346.249 180.093 346.464 180.265 346.464 180.471 346.464 180.676 346.249 180.848 345.993 180.848Z" fill="#3D4647" fill-rule="evenodd" fill-opacity="1" transform="matrix(1.02471 0 0 1 228.204 162.442)"/><path d="M346.616 182.517C346.616 182.726 346.447 182.895 346.238 182.895 346.03 182.895 345.86 182.726 345.86 182.517 345.86 182.309 346.03 182.14 346.238 182.14 346.447 182.14 346.616 182.309 346.616 182.517Z" fill="#3D4647" fill-rule="evenodd" fill-opacity="1" transform="matrix(1.02471 0 0 1 228.204 162.442)"/><path d="M345.993 174.197 334.052 174.197C333.796 174.197 333.581 174.025 333.581 173.819 333.581 173.614 333.796 173.442 334.052 173.442L345.993 173.442C346.249 173.442 346.464 173.614 346.464 173.819 346.464 174.033 346.249 174.197 345.993 174.197Z" fill="#3D4647" fill-rule="evenodd" fill-opacity="1" transform="matrix(1.02471 0 0 1 228.204 162.442)"/><path d="M345.993 176.244 334.052 176.244C333.796 176.244 333.581 176.071 333.581 175.866 333.581 175.661 333.796 175.488 334.052 175.488L345.993 175.488C346.249 175.488 346.464 175.661 346.464 175.866 346.464 176.071 346.249 176.244 345.993 176.244Z" fill="#3D4647" fill-rule="evenodd" fill-opacity="1" transform="matrix(1.02471 0 0 1 228.204 162.442)"/><path d="M345.993 172.151 334.052 172.151C333.796 172.151 333.581 171.978 333.581 171.773 333.581 171.568 333.796 171.395 334.052 171.395L345.993 171.395C346.249 171.395 346.464 171.568 346.464 171.773 346.464 171.986 346.249 172.151 345.993 172.151Z" fill="#3D4647" fill-rule="evenodd" fill-opacity="1" transform="matrix(1.02471 0 0 1 228.204 162.442)"/><path d="M345.993 167.546 334.052 167.546C333.796 167.546 333.581 167.373 333.581 167.168 333.581 166.963 333.796 166.791 334.052 166.791L345.993 166.791C346.249 166.791 346.464 166.963 346.464 167.168 346.464 167.373 346.249 167.546 345.993 167.546Z" fill="#3D4647" fill-rule="evenodd" fill-opacity="1" transform="matrix(1.02471 0 0 1 228.204 162.442)"/><path d="M345.993 169.592 334.052 169.592C333.796 169.592 333.581 169.42 333.581 169.215 333.581 169.01 333.796 168.837 334.052 168.837L345.993 168.837C346.249 168.837 346.464 169.01 346.464 169.215 346.464 169.42 346.249 169.592 345.993 169.592Z" fill="#3D4647" fill-rule="evenodd" fill-opacity="1" transform="matrix(1.02471 0 0 1 228.204 162.442)"/></g></g></g></g></g></svg>