<svg width="324" height="72" xmlns="http://www.w3.org/2000/svg" xmlns:xlink="http://www.w3.org/1999/xlink" xml:space="preserve" overflow="hidden"><defs><clipPath id="clip0"><rect x="492" y="320" width="324" height="72"/></clipPath></defs><g clip-path="url(#clip0)" transform="translate(-492 -320)"><path d="M16.4641 34.9645 21.7846 38.0233 21.7846 31.1691 36.1603 22.7551 30.9871 19.5836 16.4641 28.0583 16.4641 34.9645Z" fill="#4F595B" fill-rule="nonzero" fill-opacity="1" transform="matrix(1.00134 0 0 1 492.076 320)"/><path d="M30.9265 0 42.8932 6.94957 11.4642 25.5107 11.4642 41.6194 0 34.9385 0 18.0412 30.9265 0Z" fill="#64BC4F" fill-rule="nonzero" fill-opacity="1" transform="matrix(1.00134 0 0 1 492.076 320)"/><path d="M39.2452 24.5661 33.9767 27.651 40.0337 31.1864 39.999 47.4252 45.2242 44.3577 45.2242 28.0583 39.2452 24.5661Z" fill="#4F595B" fill-rule="nonzero" fill-opacity="1" transform="matrix(1.00134 0 0 1 492.076 320)"/><path d="M62.1735 53.7942 50.1894 60.9084 50.2241 25.2594 35.701 16.7587 47.8151 9.79179 62.1735 18.0758 62.1735 53.7942Z" fill="#64BC4F" fill-rule="nonzero" fill-opacity="1" transform="matrix(1.00134 0 0 1 492.076 320)"/><path d="M36.9315 49.2882 36.9315 43.3525 30.8571 46.9139 16.4641 38.5606 16.4641 44.427 30.9871 52.815 36.9315 49.2882Z" fill="#4F595B" fill-rule="nonzero" fill-opacity="1" transform="matrix(1.00134 0 0 1 492.076 320)"/><path d="M0 54.0108 0 40.8482 30.9698 58.5601 45.1982 50.0681 45.2589 63.768 31.3251 72 0 54.0108Z" fill="#64BC4F" fill-rule="nonzero" fill-opacity="1" transform="matrix(1.00134 0 0 1 492.076 320)"/><path d="M149.113 50.8827C153.072 50.7437 156.898 52.3234 159.606 55.2153 162.193 58.1085 163.556 61.8917 163.41 65.7696 163.555 69.6447 162.191 73.4248 159.606 76.3153 153.798 82.0804 144.427 82.0804 138.619 76.3153 136.034 73.4248 134.67 69.6447 134.815 65.7696 134.674 61.8852 136.047 58.098 138.645 55.2066 141.353 52.3148 145.179 50.735 149.139 50.874M149.139 76.7053C151.968 76.8307 154.695 75.6367 156.521 73.4731 158.299 71.3014 159.222 68.5564 159.121 65.7523 159.224 62.9454 158.299 60.1972 156.521 58.0229 152.729 53.955 146.358 53.7312 142.29 57.5229 142.118 57.6836 141.952 57.8504 141.79 58.0229 140.012 60.1972 139.088 62.9454 139.191 65.7523 139.089 68.5564 140.013 71.3014 141.79 73.4731 143.617 75.6367 146.344 76.8307 149.173 76.7053" fill="#4F595B" fill-rule="nonzero" fill-opacity="1" transform="matrix(1.00134 0 0 1 445.238 290.694)"/><path d="M173.445 51.3419 173.445 55.8392C174.493 54.4634 175.782 53.289 177.249 52.3731 178.781 51.4 180.564 50.8969 182.379 50.926 184.067 50.8867 185.747 51.1599 187.335 51.7319 188.709 52.265 189.948 53.0933 190.966 54.1581 193.399 56.6185 194.696 59.9818 194.545 63.4387L194.545 80.1714 190.212 80.1714 190.212 63.508C190.328 61.1791 189.518 58.8989 187.959 57.165 186.442 55.5867 184.324 54.7295 182.136 54.808 179.848 54.7577 177.633 55.6143 175.975 57.191 174.281 58.8581 173.363 61.1588 173.445 63.534L173.445 80.1714 169.112 80.1714 169.112 51.3419Z" fill="#4F595B" fill-rule="nonzero" fill-opacity="1" transform="matrix(1.00134 0 0 1 445.238 290.694)"/><path d="M218.695 59.0714C218.314 56.0847 215.893 54.5914 211.433 54.5914 206.973 54.5914 204.755 55.975 204.778 58.7421 204.741 59.8011 205.282 60.7967 206.191 61.3417 207.292 62.0046 208.487 62.4982 209.735 62.8061 211.156 63.1932 212.705 63.5485 214.38 63.8719 215.968 64.175 217.522 64.6396 219.016 65.2584 220.366 65.8046 221.579 66.642 222.568 67.7107 223.56 68.9026 224.065 70.4256 223.981 71.974 224.105 74.5212 222.906 76.952 220.809 78.4037 218.695 79.8883 215.829 80.6278 212.213 80.622 208.372 80.622 205.316 79.663 203.045 77.7451 201.012 76.13 199.792 73.7026 199.709 71.1075L204.198 71.1075C204.466 73.7591 205.931 75.5528 208.695 76.4713 209.657 76.7739 210.659 76.9287 211.667 76.9306 212.583 76.9375 213.498 76.8795 214.406 76.7572 215.254 76.6459 216.086 76.4335 216.884 76.1247 218.548 75.647 219.684 74.1123 219.657 72.3813 219.703 71.2831 219.165 70.2422 218.244 69.643 217.147 68.9433 215.949 68.4172 214.692 68.0833 213.27 67.6847 211.728 67.3121 210.056 66.9914 208.467 66.6884 206.912 66.2329 205.411 65.631 204.083 65.1025 202.886 64.2925 201.902 63.2567 200.906 62.1109 200.399 60.621 200.489 59.106 200.382 56.7379 201.448 54.4688 203.34 53.0403 205.246 51.5904 208.063 50.8682 211.789 50.874 215.324 50.874 218.112 51.7203 220.151 53.4129 221.84 54.832 222.897 56.8644 223.088 59.0627Z" fill="#4F595B" fill-rule="nonzero" fill-opacity="1" transform="matrix(1.00134 0 0 1 445.238 290.694)"/><path d="M233.859 39.8604 233.859 55.8392C234.908 54.4494 236.196 53.2579 237.663 52.3211 239.2 51.3545 240.986 50.8548 242.802 50.8827 244.49 50.8442 246.17 51.1174 247.758 51.6885 249.13 52.224 250.369 53.0519 251.389 54.1148 253.82 56.576 255.113 59.9396 254.959 63.3954L254.959 80.1714 250.627 80.1714 250.627 63.508C250.741 61.1902 249.938 58.9206 248.391 57.191 246.874 55.6127 244.756 54.7555 242.568 54.834 240.279 54.7677 238.059 55.6159 236.398 57.191 234.702 58.8572 233.781 61.1576 233.859 63.534L233.859 80.1714 229.527 80.1714 229.527 39.8604Z" fill="#4F595B" fill-rule="nonzero" fill-opacity="1" transform="matrix(1.00134 0 0 1 445.238 290.694)"/><path d="M284.655 75.5614C282.344 78.9409 278.904 80.6306 274.335 80.6306 270.478 80.7576 266.763 79.1713 264.188 76.298 261.627 73.3932 260.267 69.623 260.384 65.7523 260.266 61.8788 261.625 58.1054 264.188 55.198 266.85 52.2978 270.652 50.7136 274.586 50.8653 278.598 50.6997 282.405 52.6458 284.621 55.9952L284.621 51.3419 288.953 51.3419 288.953 80.1714 284.621 80.1714ZM274.907 76.7139C277.736 76.842 280.465 75.6476 282.29 73.4818 284.07 71.3121 284.995 68.5657 284.889 65.761 284.996 62.9534 284.071 60.2039 282.29 58.0315 280.461 55.8711 277.734 54.6806 274.907 54.808 272.049 54.7187 269.299 55.9104 267.411 58.0575 265.572 60.2037 264.607 62.9626 264.708 65.787 264.61 68.6084 265.574 71.3639 267.411 73.5078 269.299 75.6546 272.05 76.841 274.907 76.7399" fill="#4F595B" fill-rule="nonzero" fill-opacity="1" transform="matrix(1.00134 0 0 1 445.238 290.694)"/><path d="M300.79 55.9605C303.101 52.5753 306.541 50.8827 311.11 50.8827 314.953 50.7531 318.653 52.3412 321.205 55.2153 323.797 58.1084 325.178 61.8871 325.061 65.7696 325.177 69.6494 323.796 73.4248 321.205 76.3153 318.629 79.2037 315.163 80.648 310.807 80.648 306.794 80.817 302.986 78.8702 300.773 75.5181L300.773 91.6009 296.44 91.6009 296.44 51.3419 300.773 51.3419ZM310.538 54.808C307.707 54.6896 304.98 55.8896 303.156 58.0575 301.378 60.2319 300.453 62.98 300.556 65.787 300.455 68.5911 301.378 71.3361 303.156 73.5078 304.982 75.6714 307.709 76.8653 310.538 76.7399 313.394 76.8292 316.138 75.6334 318.017 73.4818 319.856 71.3392 320.824 68.5836 320.729 65.761 320.82 62.9443 319.853 60.1957 318.017 58.0575 316.123 55.9201 313.375 54.7382 310.521 54.834" fill="#4F595B" fill-rule="nonzero" fill-opacity="1" transform="matrix(1.00134 0 0 1 445.238 290.694)"/><path d="M343.571 76.7139C347.453 76.7139 350.24 75.0993 351.933 71.87L356.655 71.87C355.723 74.4012 354.073 76.6056 351.907 78.213 349.448 79.9102 346.503 80.7591 343.519 80.6306 339.523 80.7754 335.657 79.1975 332.904 76.298 330.232 73.449 328.801 69.6558 328.926 65.7523 328.793 61.8759 330.162 58.0977 332.748 55.2066 338.556 49.4415 347.927 49.4415 353.735 55.2066 356.32 58.1008 357.683 61.8834 357.539 65.761L357.539 67.494 333.372 67.494C333.604 69.9946 334.726 72.3286 336.534 74.071 338.432 75.8586 340.965 76.8133 343.571 76.7226M343.224 54.8167C340.757 54.7457 338.359 55.6341 336.534 57.295 334.813 58.9287 333.714 61.1096 333.423 63.4647L353.024 63.4647C352.734 61.1096 351.634 58.9287 349.914 57.295 348.089 55.6341 345.691 54.7457 343.224 54.8167" fill="#4F595B" fill-rule="nonzero" fill-opacity="1" transform="matrix(1.00134 0 0 1 445.238 290.694)"/><path d="M365.676 60.0419C363.164 60.0609 361.111 58.0397 361.092 55.5273 361.073 53.0148 363.094 50.9626 365.606 50.9436 368.119 50.9245 370.171 52.9456 370.19 55.4579 370.205 57.9685 368.186 60.018 365.676 60.0419M365.676 51.3766C363.426 51.3766 361.603 53.2 361.603 55.4493 361.603 57.6985 363.426 59.522 365.676 59.522 367.925 59.522 369.748 57.6985 369.748 55.4493 369.744 53.2019 367.923 51.3813 365.676 51.3766" fill="#4F595B" fill-rule="nonzero" fill-opacity="1" transform="matrix(1.00134 0 0 1 445.238 290.694)"/><path d="M366.152 53.1876C366.537 53.1647 366.917 53.2851 367.218 53.5256 367.481 53.7567 367.625 54.0946 367.608 54.4441 367.612 54.7145 367.544 54.9809 367.409 55.2153 367.265 55.4422 367.038 55.6039 366.776 55.6659L366.776 55.6659C366.898 55.6838 367.015 55.7313 367.114 55.8046 367.198 55.8643 367.269 55.941 367.322 56.0299 367.366 56.1233 367.395 56.2225 367.409 56.3245 367.409 56.4371 367.452 56.5498 367.469 56.6624 367.487 56.7751 367.469 56.8964 367.469 57.0177 367.469 57.139 367.469 57.2603 367.469 57.3816 367.486 57.4934 367.512 57.6035 367.547 57.7109 367.58 57.8129 367.633 57.9072 367.703 57.9882L366.984 57.9882C366.934 57.9335 366.903 57.8633 366.898 57.7889 366.892 57.6937 366.892 57.5982 366.898 57.5029 366.898 57.399 366.898 57.2863 366.898 57.165 366.892 57.0457 366.878 56.9269 366.854 56.8097 366.837 56.6959 366.814 56.5831 366.785 56.4718 366.762 56.3713 366.717 56.2769 366.655 56.1945 366.599 56.1141 366.521 56.051 366.43 56.0125 366.314 55.9558 366.186 55.929 366.057 55.9345L364.489 55.9345 364.489 57.9882 363.856 57.9882 363.856 53.1876ZM366.282 55.3626C366.41 55.3484 366.531 55.3039 366.638 55.2326 366.742 55.1706 366.826 55.0805 366.88 54.9727 366.944 54.8408 366.975 54.6947 366.967 54.5481 366.978 54.3308 366.907 54.1174 366.768 53.9502 366.592 53.7887 366.356 53.7071 366.118 53.7249L364.523 53.7249 364.523 55.3973 365.858 55.3973C365.999 55.4109 366.141 55.4109 366.282 55.3973" fill="#4F595B" fill-rule="nonzero" fill-opacity="1" transform="matrix(1.00134 0 0 1 445.238 290.694)"/></g></svg>