<svg width="56" height="43" xmlns="http://www.w3.org/2000/svg" xmlns:xlink="http://www.w3.org/1999/xlink" xml:space="preserve" overflow="hidden"><defs><clipPath id="clip0"><rect x="1160" y="422" width="56" height="43"/></clipPath><clipPath id="clip1"><rect x="1160" y="423" width="55" height="42"/></clipPath><clipPath id="clip2"><rect x="1160" y="423" width="55" height="42"/></clipPath><clipPath id="clip3"><rect x="1160" y="423" width="55" height="42"/></clipPath></defs><g clip-path="url(#clip0)" transform="translate(-1160 -422)"><g clip-path="url(#clip1)"><g clip-path="url(#clip2)"><g clip-path="url(#clip3)"><path d="M-75.2507 4386.64-120.212 4386.64C-121.132 4386.64-121.877 4387.3-121.877 4388.12L-121.877 4395.42C-121.877 4396.24-121.132 4396.89-120.212 4396.89L-75.2507 4396.89C-74.3314 4396.89-73.586 4396.24-73.586 4395.42L-73.586 4388.12C-73.586 4387.3-74.3314 4386.64-75.2507 4386.64M-111.988 4394.2-114.796 4394.2-116.199 4391.76-114.796 4389.33-111.988 4389.33-110.584 4391.76-111.988 4394.2ZM-85.8606 4390.71C-86.3949 4390.71-86.8297 4390.27-86.8297 4389.74-86.8297 4389.2-86.3949 4388.77-85.8606 4388.77-85.3264 4388.77-84.8792 4389.2-84.8792 4389.74-84.8792 4390.27-85.314 4390.71-85.8606 4390.71M-81.885 4390.71C-82.4192 4390.71-82.8541 4390.27-82.8541 4389.74-82.8541 4389.2-82.4192 4388.77-81.885 4388.77-81.3508 4388.77-80.9035 4389.2-80.9035 4389.74-80.9035 4390.27-81.3384 4390.71-81.885 4390.71M-78.2324 4390.71C-78.7667 4390.71-79.2139 4390.27-79.2139 4389.74-79.2139 4389.2-78.7791 4388.77-78.2324 4388.77-77.6982 4388.77-77.251 4389.2-77.251 4389.74-77.251 4390.27-77.6858 4390.71-78.2324 4390.71" fill="#6EBE4C" fill-rule="nonzero" fill-opacity="1" transform="matrix(1 0 0 1.01818 1160 423.406)"/><path d="M-75.2507 4374.99-120.212 4374.99C-121.132 4374.99-121.877 4375.65-121.877 4376.46L-121.877 4383.75C-121.877 4384.57-121.132 4385.23-120.212 4385.23L-75.2507 4385.23C-74.3314 4385.23-73.586 4384.57-73.586 4383.75L-73.586 4376.46C-73.586 4375.65-74.3314 4374.99-75.2507 4374.99M-111.988 4382.54-114.796 4382.54-116.199 4380.11-114.796 4377.67-111.988 4377.67-110.584 4380.11-111.988 4382.54ZM-85.8606 4379.62C-86.3949 4379.62-86.8297 4379.19-86.8297 4378.66-86.8297 4378.12-86.3949 4377.67-85.8606 4377.67-85.3264 4377.67-84.8792 4378.11-84.8792 4378.66-84.8792 4379.19-85.314 4379.62-85.8606 4379.62M-81.885 4379.62C-82.4192 4379.62-82.8541 4379.19-82.8541 4378.66-82.8541 4378.12-82.4192 4377.67-81.885 4377.67-81.3508 4377.67-80.9035 4378.11-80.9035 4378.66-80.9035 4379.19-81.3384 4379.62-81.885 4379.62M-78.2324 4379.62C-78.7667 4379.62-79.2139 4379.19-79.2139 4378.66-79.2139 4378.12-78.7791 4377.67-78.2324 4377.67-77.6982 4377.67-77.251 4378.11-77.251 4378.66-77.251 4379.19-77.6858 4379.62-78.2324 4379.62" fill="#6EBE4C" fill-rule="nonzero" fill-opacity="1" transform="matrix(1 0 0 1.01818 1160 423.406)"/><path d="M-75.2507 4408.54C-74.3314 4408.54-73.586 4407.88-73.586 4407.07L-73.586 4399.78C-73.586 4398.97-74.3314 4398.3-75.2507 4398.3L-120.212 4398.3C-121.132 4398.3-121.877 4398.96-121.877 4399.78L-121.877 4407.07C-121.877 4407.88-121.132 4408.54-120.212 4408.54L-99.1789 4408.54-99.1789 4412.63-121.877 4412.63-121.877 4415.54-73.586 4415.54-73.586 4412.63-96.2842 4412.63-96.2842 4408.54-75.2507 4408.54ZM-78.2324 4399.95C-77.6982 4399.95-77.251 4400.39-77.251 4400.93-77.251 4401.47-77.6858 4401.91-78.2324 4401.91-78.7667 4401.91-79.2015 4401.48-79.2015 4400.93-79.2015 4400.39-78.7667 4399.95-78.2324 4399.95M-81.885 4399.95C-81.3508 4399.95-80.9035 4400.39-80.9035 4400.93-80.9035 4401.47-81.3384 4401.91-81.885 4401.91-82.4192 4401.91-82.8665 4401.48-82.8665 4400.93-82.8541 4400.39-82.4192 4399.95-81.885 4399.95M-85.8606 4399.95C-85.3264 4399.95-84.8792 4400.39-84.8792 4400.93-84.8792 4401.47-85.314 4401.91-85.8606 4401.91-86.3949 4401.91-86.8297 4401.48-86.8297 4400.93-86.8297 4400.39-86.3949 4399.95-85.8606 4399.95M-111.988 4405.76-114.796 4405.76-116.199 4403.33-114.796 4400.89-111.988 4400.89-110.584 4403.33-111.988 4405.76Z" fill="#4F595B" fill-rule="nonzero" fill-opacity="1" transform="matrix(1 0 0 1.01818 1160 423.406)"/><path d="M-105.055 4383.92C-105.055 4391.45-111.168 4397.56-118.697 4397.56-126.225 4397.56-132.338 4391.45-132.338 4383.92-132.338 4376.4-126.225 4370.28-118.697 4370.28-111.155 4370.29-105.055 4376.4-105.055 4383.92" fill="#FFFFFF" fill-rule="nonzero" fill-opacity="1" transform="matrix(1 0 0 1.01818 1160 423.406)"/><path d="M-120.535 4392.62C-119.927 4392.76-119.305 4392.83-118.684 4392.83-118.063 4392.83-117.429 4392.76-116.833 4392.62L-115.404 4394C-115.193 4394.21-114.87 4394.25-114.609 4394.1L-113.578 4393.5-112.547 4392.91C-112.336 4392.78-112.211 4392.56-112.211 4392.32-112.211 4392.26-112.224 4392.21-112.236 4392.16L-112.721 4390.23C-111.864 4389.32-111.23 4388.22-110.87 4387.03L-108.956 4386.5C-108.671 4386.41-108.472 4386.15-108.472 4385.85L-108.472 4383.46C-108.472 4383.17-108.671 4382.9-108.956 4382.82L-110.87 4382.28C-111.23 4381.09-111.864 4379.99-112.721 4379.08L-112.236 4377.15C-112.224 4377.1-112.211 4377.04-112.211 4376.99-112.211 4376.75-112.336 4376.53-112.547 4376.41L-113.578 4375.81-114.609 4375.21C-114.87 4375.07-115.193 4375.1-115.404 4375.31L-116.833 4376.69C-117.442 4376.56-118.063 4376.48-118.684 4376.48-119.305 4376.48-119.927 4376.56-120.535 4376.69L-121.952 4375.31C-122.163 4375.1-122.498 4375.07-122.759 4375.21L-123.79 4375.81-124.822 4376.41C-125.033 4376.53-125.157 4376.75-125.157 4376.99-125.157 4377.04-125.145 4377.1-125.132 4377.15L-124.648 4379.08C-125.505 4380-126.138 4381.09-126.499 4382.28L-128.412 4382.82C-128.698 4382.9-128.897 4383.17-128.897 4383.46L-128.897 4385.85C-128.897 4386.15-128.698 4386.41-128.412 4386.5L-126.499 4387.03C-126.138 4388.22-125.505 4389.32-124.648 4390.23L-125.132 4392.16C-125.145 4392.21-125.157 4392.27-125.157 4392.32-125.157 4392.56-125.033 4392.78-124.822 4392.91L-123.79 4393.5-122.759 4394.1C-122.498 4394.25-122.175 4394.21-121.952 4394L-120.535 4392.62ZM-123.989 4384.66C-123.989 4381.74-121.616 4379.36-118.697 4379.36-115.777 4379.36-113.404 4381.74-113.404 4384.66-113.404 4387.58-115.777 4389.95-118.697 4389.95-121.604 4389.95-123.989 4387.58-123.989 4384.66" fill="#6EBE4C" fill-rule="nonzero" fill-opacity="1" transform="matrix(1 0 0 1.01818 1160 423.406)"/><path d="M265.16-1220.37 255.992-1220.37C255.756-1220.37 255.557-1220.57 255.557-1220.81L255.557-1221.22C255.557-1221.45 255.756-1221.65 255.992-1221.65L265.16-1221.65C265.396-1221.65 265.595-1221.45 265.595-1221.22L265.595-1220.81C265.595-1220.56 265.409-1220.37 265.16-1220.37" fill="#4F595B" fill-rule="nonzero" fill-opacity="1" transform="matrix(1 0 0 1.01818 1160 423.406)"/><path d="M284.753-1223.21 255.992-1223.21C255.756-1223.21 255.557-1223.41 255.557-1223.64L255.557-1224.05C255.557-1224.29 255.756-1224.49 255.992-1224.49L284.753-1224.49C284.989-1224.49 285.188-1224.29 285.188-1224.05L285.188-1223.64C285.188-1223.41 285.001-1223.21 284.753-1223.21" fill="#4F595B" fill-rule="nonzero" fill-opacity="1" transform="matrix(1 0 0 1.01818 1160 423.406)"/><path d="M288.169-1229.22 255.992-1229.22C255.756-1229.22 255.557-1229.42 255.557-1229.65L255.557-1230.06C255.557-1230.3 255.756-1230.5 255.992-1230.5L288.169-1230.5C288.405-1230.5 288.604-1230.3 288.604-1230.06L288.604-1229.65C288.604-1229.41 288.405-1229.22 288.169-1229.22" fill="#4F595B" fill-rule="nonzero" fill-opacity="1" transform="matrix(1 0 0 1.01818 1160 423.406)"/><path d="M288.169-1226.34 255.992-1226.34C255.756-1226.34 255.557-1226.54 255.557-1226.77L255.557-1227.18C255.557-1227.42 255.756-1227.62 255.992-1227.62L288.169-1227.62C288.405-1227.62 288.604-1227.42 288.604-1227.18L288.604-1226.77C288.604-1226.54 288.405-1226.34 288.169-1226.34" fill="#4F595B" fill-rule="nonzero" fill-opacity="1" transform="matrix(1 0 0 1.01818 1160 423.406)"/><path d="M288.505-1223.85C288.505-1223.5 288.219-1223.22 287.871-1223.22 287.523-1223.22 287.237-1223.5 287.237-1223.85 287.237-1224.2 287.523-1224.49 287.871-1224.49 288.219-1224.49 288.505-1224.2 288.505-1223.85" fill="#4F595B" fill-rule="nonzero" fill-opacity="1" transform="matrix(1 0 0 1.01818 1160 423.406)"/><path d="M244.872-1205.54 300.456-1205.54C302.307-1205.54 303.798-1207.04 303.798-1208.89L303.798-1244.17C303.798-1246.02 302.307-1247.52 300.456-1247.52L244.872-1247.52C243.021-1247.52 241.53-1246.03 241.53-1244.17L241.53-1208.89C241.543-1207.03 243.034-1205.54 244.872-1205.54M245.108-1243.99 300.22-1243.99 300.22-1209.06 245.108-1209.06 245.108-1243.99Z" fill="#6EBE4C" fill-rule="nonzero" fill-opacity="1" transform="matrix(1 0 0 1.01818 1160 423.406)"/><path d="M279.249-1203.18 279.261-1201.68C279.261-1201.03 278.876-1200.48 278.354-1200.37 278.28-1200.35 278.193-1200.33 278.106-1200.33L267.918-1200.33C267.335-1200.33 266.862-1200.87 266.8-1201.54L266.8-1201.56C266.8-1201.59 266.8-1202.57 266.8-1203.19L238.772-1203.19C238.772-1200.78 240.425-1198.84 242.45-1198.84L303.637-1198.84C305.662-1198.84 307.314-1200.78 307.314-1203.19L279.249-1203.19Z" fill="#6EBE4C" fill-rule="nonzero" fill-opacity="1" transform="matrix(1 0 0 1.01818 1160 423.406)"/><path d="M275.161-1252.79 311.029-1252.79 311.029-1216.92 275.161-1216.92Z" fill="#FFFFFF" fill-rule="nonzero" fill-opacity="1" transform="matrix(1 0 0 1.01818 1160 423.406)"/><path d="M303.525-1241.71C303.525-1242.43 302.941-1243.01 302.22-1243.01L300.233-1243.01 300.233-1249.61C300.233-1253.86 296.779-1257.3 292.542-1257.3 288.306-1257.3 284.852-1253.84 284.852-1249.61L284.852-1243.01 282.864-1243.01C282.144-1243.01 281.56-1242.43 281.56-1241.71L281.56-1224.8 303.537-1224.8 303.537-1241.71ZM295.126-1233.98 293.462-1233.02 293.462-1230.38C293.462-1229.87 293.039-1229.44 292.53-1229.44 292.021-1229.44 291.598-1229.85 291.598-1230.38L291.598-1232.98 289.884-1233.97 289.884-1236.98 292.493-1238.5 295.102-1236.98 295.102-1233.98ZM297.301-1243.01 287.772-1243.01 287.772-1249.61C287.772-1252.23 289.909-1254.37 292.53-1254.37 295.151-1254.37 297.288-1252.23 297.288-1249.61L297.288-1243.01Z" fill="#6EBE4C" fill-rule="nonzero" fill-opacity="1" transform="matrix(1 0 0 1.01818 1160 423.406)"/><path d="M281.547-1223.16 303.525-1223.16 303.525-1220.36 281.547-1220.36Z" fill="#4F595B" fill-rule="nonzero" fill-opacity="1" transform="matrix(1 0 0 1.01818 1160 423.406)"/><path d="M244.251-1303.66 304.134-1303.66C306.122-1303.66 307.737-1305.28 307.737-1307.28L307.737-1345.28C307.737-1347.28 306.122-1348.9 304.134-1348.9L244.251-1348.9C242.263-1348.9 240.661-1347.28 240.661-1345.28L240.661-1307.28C240.648-1305.28 242.263-1303.68 244.251-1303.66M244.5-1345.1 303.885-1345.1 303.885-1307.46 244.5-1307.46 244.5-1345.1Z" fill="#6EBE4C" fill-rule="nonzero" fill-opacity="1" transform="matrix(1 0 0 1.01818 1160 423.406)"/><path d="M281.286-1301.13 281.299-1299.5C281.299-1298.81 280.876-1298.22 280.317-1298.08 280.23-1298.06 280.143-1298.05 280.044-1298.05L269.074-1298.05C268.44-1298.05 267.931-1298.62 267.869-1299.35L267.869-1299.38C267.869-1299.4 267.869-1300.46 267.869-1301.13L237.679-1301.13C237.679-1298.53 239.456-1296.44 241.642-1296.44L307.563-1296.44C309.749-1296.44 311.526-1298.53 311.526-1301.13L281.286-1301.13Z" fill="#6EBE4C" fill-rule="nonzero" fill-opacity="1" transform="matrix(1 0 0 1.01818 1160 423.406)"/><path d="M293.263-1325.94 293.959-1326.34 295.027-1326.86C295.164-1326.94 295.251-1327.08 295.251-1327.24 295.251-1327.28 295.251-1327.32 295.238-1327.35L294.915-1328.65C295.487-1329.26 295.536-1329.86 295.785-1330.67L297.065-1331.03C297.251-1331.08 297.388-1331.27 297.388-1331.47L297.388-1333.07C297.388-1333.27 297.251-1333.44 297.065-1333.5L295.785-1333.86C295.536-1334.66 295.487-1335.52 294.915-1336.14L295.238-1337.43C295.251-1337.47 295.251-1337.51 295.251-1337.54 295.251-1337.7 295.164-1337.85 295.027-1337.93L294.331-1338.33 293.636-1338.72C293.462-1338.82 293.238-1338.8 293.101-1338.66L292.157-1337.74C291.747-1337.84 291.337-1337.88 290.915-1337.88 290.492-1337.88 290.082-1337.83 289.672-1337.74L288.716-1338.66C288.567-1338.8 288.356-1338.82 288.182-1338.72L287.486-1338.33 286.79-1337.93C286.653-1337.85 286.567-1337.7 286.567-1337.54 286.567-1337.51 286.567-1337.47 286.579-1337.43L286.902-1336.14C286.33-1335.53 285.908-1334.8 285.66-1333.99L284.38-1333.63C284.194-1333.58 284.057-1333.41 284.057-1333.21L284.057-1331.6C284.057-1331.41 284.194-1331.23 284.38-1331.17L285.66-1330.81C285.908-1330.01 286.33-1329.28 286.902-1328.66L286.579-1327.37C286.567-1327.33 286.567-1327.29 286.567-1327.26 286.567-1327.09 286.653-1326.94 286.79-1326.87L287.113-1326.35 287.809-1325.95C287.983-1325.85 288.206-1325.88 288.343-1326.01L289.672-1327.06C290.082-1326.96 290.492-1326.92 290.915-1326.92 291.337-1326.92 291.747-1326.97 292.157-1327.06L292.729-1326.01C292.865-1325.86 293.089-1325.84 293.263-1325.94M287.374-1332.37C287.374-1334.32 288.964-1335.91 290.915-1335.91 292.865-1335.91 294.456-1334.32 294.456-1332.37 294.456-1330.42 292.865-1328.83 290.915-1328.83 288.952-1328.83 287.374-1330.42 287.374-1332.37" fill="#4F595B" fill-rule="nonzero" fill-opacity="1" transform="matrix(1 0 0 1.01818 1160 423.406)"/><path d="M299.785-1340.46C299.686-1340.46 299.611-1340.39 299.611-1340.29 299.611-1340.19 299.686-1340.11 299.785-1340.11L300.295-1340.11C300.344-1340.11 300.382-1340.13 300.419-1340.16 300.444-1340.19 300.469-1340.24 300.469-1340.29 300.469-1340.39 300.394-1340.46 300.295-1340.46L299.785-1340.46" fill="#4F595B" fill-rule="nonzero" fill-opacity="1" transform="matrix(1 0 0 1.01818 1160 423.406)"/><path d="M302.084-1340.16C302.109-1340.19 302.134-1340.24 302.134-1340.29 302.134-1340.39 302.059-1340.46 301.96-1340.46L301.45-1340.46C301.351-1340.46 301.276-1340.39 301.276-1340.29 301.276-1340.19 301.351-1340.11 301.45-1340.11L301.96-1340.11C302.009-1340.11 302.059-1340.13 302.084-1340.16" fill="#4F595B" fill-rule="nonzero" fill-opacity="1" transform="matrix(1 0 0 1.01818 1160 423.406)"/><path d="M300.705-1339.7 300.705-1339.19C300.705-1339.1 300.779-1339.02 300.879-1339.02 300.928-1339.02 300.966-1339.05 301.003-1339.07 301.04-1339.11 301.053-1339.15 301.053-1339.19L301.053-1339.7C301.053-1339.8 300.978-1339.88 300.879-1339.88 300.779-1339.88 300.705-1339.8 300.705-1339.7" fill="#4F595B" fill-rule="nonzero" fill-opacity="1" transform="matrix(1 0 0 1.01818 1160 423.406)"/><path d="M301.003-1340.74C301.028-1340.76 301.053-1340.81 301.053-1340.86L301.053-1341.37C301.053-1341.47 300.978-1341.54 300.879-1341.54 300.779-1341.54 300.705-1341.47 300.705-1341.37L300.705-1340.86C300.705-1340.76 300.779-1340.69 300.879-1340.69 300.916-1340.69 300.966-1340.71 301.003-1340.74" fill="#4F595B" fill-rule="nonzero" fill-opacity="1" transform="matrix(1 0 0 1.01818 1160 423.406)"/><path d="M246.152-1319.03C246.115-1319.03 246.09-1319.04 246.077-1319.07 246.053-1319.09 246.053-1319.13 246.065-1319.16L247.531-1324.34C247.755-1325.24 248.463-1325.96 249.382-1326.19 249.904-1326.32 250.525-1326.46 251.134-1326.6 251.979-1326.78 252.848-1326.98 253.507-1327.17 254.066-1327.33 254.451-1327.85 254.451-1328.42L254.451-1329.69 254.302-1329.85C253.842-1330.36 253.544-1330.99 253.432-1331.67 253.234-1331.69 252.948-1331.81 252.886-1332.16 252.786-1332.77 252.699-1333.11 252.637-1333.34 252.563-1333.6 252.525-1333.77 252.525-1334.08 252.525-1334.42 252.6-1334.65 252.761-1334.75 252.811-1334.77 252.861-1334.8 252.948-1334.78 252.911-1334.96 252.873-1335.21 252.861-1335.49 252.824-1337.02 253.308-1338.39 254.227-1339.33 255.023-1340.15 256.079-1340.6 257.209-1340.6 258.34-1340.6 259.396-1340.15 260.191-1339.33 261.11-1338.37 261.595-1337.01 261.557-1335.49 261.545-1335.21 261.508-1334.96 261.471-1334.78 261.545-1334.8 261.607-1334.77 261.657-1334.75 261.806-1334.66 261.893-1334.44 261.893-1334.08 261.893-1333.77 261.856-1333.6 261.781-1333.34 261.719-1333.11 261.632-1332.77 261.533-1332.16 261.483-1331.81 261.185-1331.69 260.986-1331.67 260.874-1330.99 260.576-1330.36 260.116-1329.85L259.967-1329.69 259.967-1328.42C259.967-1327.84 260.352-1327.33 260.911-1327.17 261.508-1326.99 262.377-1326.85 263.222-1326.7 263.968-1326.56 264.738-1326.42 265.334-1326.27 266.254-1326.04 266.962-1325.33 267.185-1324.41L268.738-1319.16C268.751-1319.13 268.738-1319.09 268.726-1319.07 268.714-1319.04 268.676-1319.03 268.651-1319.03L246.152-1319.03ZM253.507-1331.86C253.557-1331.86 253.594-1331.83 253.606-1331.78 253.706-1331.11 253.991-1330.5 254.439-1329.99L254.613-1329.79C254.625-1329.77 254.637-1329.75 254.637-1329.73L254.637-1328.42C254.637-1327.75 254.19-1327.16 253.544-1326.97 252.873-1326.78 252.004-1326.58 251.159-1326.39 250.562-1326.25 249.941-1326.11 249.419-1325.98 248.575-1325.76 247.916-1325.11 247.705-1324.26L246.276-1319.2 268.49-1319.22 266.974-1324.35C266.763-1325.19 266.117-1325.85 265.26-1326.06 264.676-1326.21 263.906-1326.35 263.16-1326.47 262.315-1326.62 261.446-1326.77 260.837-1326.94 260.191-1327.13 259.744-1327.73 259.744-1328.4L259.744-1329.7C259.744-1329.73 259.756-1329.75 259.768-1329.77L259.942-1329.96C260.39-1330.46 260.675-1331.08 260.775-1331.75 260.775-1331.8 260.824-1331.83 260.874-1331.84 260.887-1331.84 261.247-1331.84 261.309-1332.18 261.408-1332.8 261.495-1333.13 261.557-1333.37 261.62-1333.63 261.657-1333.78 261.657-1334.05 261.657-1334.42 261.557-1334.52 261.52-1334.55 261.471-1334.57 261.396-1334.55 261.346-1334.52 261.309-1334.51 261.272-1334.51 261.234-1334.54 261.197-1334.56 261.185-1334.6 261.197-1334.65 261.247-1334.82 261.309-1335.11 261.321-1335.48 261.359-1336.96 260.899-1338.26 260.017-1339.18 259.259-1339.97 258.253-1340.39 257.172-1340.39 256.103-1340.39 255.085-1339.95 254.327-1339.18 253.445-1338.28 252.973-1336.96 253.022-1335.48 253.035-1335.11 253.097-1334.82 253.147-1334.65 253.159-1334.61 253.147-1334.57 253.109-1334.54 253.072-1334.51 253.035-1334.51 252.998-1334.52 252.948-1334.56 252.873-1334.59 252.824-1334.55 252.786-1334.52 252.687-1334.44 252.687-1334.05 252.687-1333.78 252.724-1333.63 252.786-1333.37 252.848-1333.12 252.935-1332.8 253.035-1332.18 253.122-1331.88 253.494-1331.86 253.507-1331.86" fill="#4F595B" fill-rule="nonzero" fill-opacity="1" transform="matrix(1 0 0 1.01818 1160 423.406)"/><path d="M246.152-1318.94 246.152-1318.94C246.09-1318.94 246.04-1318.97 246.003-1319.02 245.966-1319.07 245.953-1319.12 245.978-1319.18L247.444-1324.36C247.68-1325.3 248.413-1326.04 249.357-1326.27 249.892-1326.41 250.5-1326.55 251.109-1326.68L251.134-1326.68C251.966-1326.87 252.836-1327.07 253.482-1327.26 254.004-1327.4 254.364-1327.89 254.364-1328.44L254.364-1329.67 254.24-1329.8C253.793-1330.31 253.482-1330.93 253.358-1331.6 253.122-1331.65 252.861-1331.81 252.811-1332.15 252.712-1332.75 252.625-1333.07 252.563-1333.32 252.488-1333.6 252.451-1333.77 252.451-1334.09 252.451-1334.47 252.538-1334.72 252.724-1334.82 252.761-1334.85 252.799-1334.86 252.848-1334.87 252.811-1335.07 252.786-1335.28 252.786-1335.49 252.737-1337.05 253.234-1338.44 254.178-1339.39 254.985-1340.23 256.066-1340.69 257.222-1340.69 258.377-1340.69 259.445-1340.23 260.265-1339.39 261.21-1338.42 261.694-1337.05 261.657-1335.49 261.644-1335.28 261.632-1335.07 261.595-1334.87 261.644-1334.86 261.694-1334.85 261.719-1334.82 261.905-1334.72 261.992-1334.46 261.992-1334.09 261.992-1333.78 261.943-1333.6 261.88-1333.33 261.818-1333.09 261.731-1332.77 261.632-1332.15 261.582-1331.81 261.321-1331.65 261.085-1331.6 260.961-1330.93 260.651-1330.31 260.203-1329.8L260.079-1329.67 260.079-1328.44C260.079-1327.89 260.439-1327.4 260.961-1327.26 261.557-1327.08 262.415-1326.93 263.247-1326.78 264.005-1326.65 264.775-1326.51 265.384-1326.36 266.328-1326.12 267.061-1325.38 267.297-1324.44L268.85-1319.18C268.863-1319.13 268.85-1319.07 268.825-1319.02 268.788-1318.97 268.738-1318.94 268.676-1318.94L246.152-1318.94ZM252.911-1334.71C252.873-1334.71 252.836-1334.7 252.799-1334.68 252.674-1334.61 252.612-1334.41 252.612-1334.1 252.612-1333.8 252.65-1333.65 252.724-1333.39 252.786-1333.14 252.873-1332.81 252.973-1332.2 253.022-1331.85 253.345-1331.79 253.445-1331.78L253.507-1331.77 253.519-1331.7C253.631-1331.04 253.929-1330.44 254.377-1329.94L254.55-1329.75 254.55-1328.46C254.55-1327.84 254.141-1327.29 253.544-1327.12 252.886-1326.93 252.028-1326.73 251.184-1326.55L251.159-1326.53C250.562-1326.4 249.941-1326.26 249.419-1326.12 248.537-1325.9 247.854-1325.21 247.63-1324.32L246.164-1319.14 246.177-1319.04 246.177-1319.13 268.651-1319.14 268.664-1319.16 267.111-1324.41C266.887-1325.29 266.204-1325.99 265.322-1326.21 264.726-1326.36 263.955-1326.5 263.21-1326.63 262.365-1326.78 261.495-1326.93 260.899-1327.11 260.303-1327.28 259.893-1327.83 259.893-1328.45L259.893-1329.74 260.067-1329.93C260.514-1330.42 260.812-1331.03 260.924-1331.69L260.936-1331.75 260.998-1331.77C261.098-1331.78 261.408-1331.84 261.471-1332.19 261.57-1332.81 261.657-1333.13 261.719-1333.38 261.781-1333.64 261.831-1333.8 261.831-1334.09 261.831-1334.4 261.769-1334.61 261.644-1334.67 261.62-1334.68 261.57-1334.71 261.508-1334.7L261.396-1334.68 261.421-1334.8C261.471-1335.01 261.495-1335.24 261.508-1335.49 261.545-1337 261.073-1338.34 260.166-1339.27 259.383-1340.06 258.352-1340.51 257.246-1340.51 256.141-1340.51 255.11-1340.06 254.327-1339.27 253.42-1338.34 252.935-1337 252.985-1335.49 252.998-1335.24 253.022-1335.02 253.072-1334.8L253.097-1334.68 252.985-1334.7C252.923-1334.7 252.911-1334.71 252.911-1334.71M246.164-1319.14 247.63-1324.31C247.842-1325.18 248.525-1325.86 249.395-1326.09 249.904-1326.22 250.5-1326.35 251.084-1326.49L251.146-1326.5C251.941-1326.67 252.861-1326.88 253.532-1327.07 254.141-1327.24 254.563-1327.8 254.563-1328.44L254.563-1329.74 254.389-1329.94C253.929-1330.46 253.631-1331.08 253.532-1331.77L253.519-1331.86 253.519-1331.78C253.42-1331.78 253.06-1331.83 252.998-1332.18 252.898-1332.8 252.811-1333.12 252.749-1333.37 252.674-1333.64 252.637-1333.78 252.637-1334.08 252.637-1334.46 252.737-1334.6 252.811-1334.65 252.861-1334.67 252.948-1334.7 253.072-1334.62L253.171-1334.66 253.084-1334.64C253.035-1334.81 252.973-1335.11 252.96-1335.49 252.923-1337 253.395-1338.33 254.302-1339.26 255.072-1340.05 256.103-1340.49 257.209-1340.49 258.302-1340.49 259.334-1340.05 260.104-1339.26 261.011-1338.33 261.483-1337 261.433-1335.49 261.421-1335.11 261.359-1334.81 261.309-1334.64L261.334-1334.62C261.433-1334.68 261.52-1334.68 261.595-1334.65 261.669-1334.6 261.769-1334.46 261.769-1334.08 261.769-1333.79 261.731-1333.63 261.657-1333.37 261.595-1333.12 261.508-1332.8 261.408-1332.18 261.359-1331.86 261.061-1331.78 260.899-1331.78 260.899-1331.78 260.887-1331.78 260.887-1331.77 260.787-1331.08 260.489-1330.45 260.029-1329.94L259.855-1329.74 259.855-1328.42C259.855-1327.79 260.278-1327.23 260.887-1327.06 261.495-1326.88 262.365-1326.73 263.21-1326.58 263.955-1326.45 264.726-1326.32 265.309-1326.16 266.192-1325.94 266.862-1325.26 267.086-1324.37L268.627-1319.13 268.515-1319.13 246.164-1319.14ZM253.507-1331.95C253.594-1331.95 253.681-1331.89 253.693-1331.79 253.793-1331.14 254.066-1330.54 254.513-1330.05L254.687-1329.85C254.724-1329.81 254.737-1329.78 254.737-1329.73L254.737-1328.42C254.737-1327.72 254.265-1327.09 253.594-1326.9 252.911-1326.7 252.004-1326.5 251.196-1326.31L251.134-1326.3C250.562-1326.17 249.954-1326.04 249.457-1325.9 248.637-1325.69 248.003-1325.06 247.804-1324.25L246.4-1319.29 268.391-1319.3 266.912-1324.32C266.713-1325.14 266.08-1325.78 265.26-1325.99 264.676-1326.14 263.906-1326.27 263.173-1326.4 262.328-1326.55 261.458-1326.7 260.837-1326.88 260.154-1327.08 259.682-1327.7 259.682-1328.41L259.682-1329.72C259.682-1329.77 259.694-1329.8 259.731-1329.84L259.905-1330.04C260.34-1330.52 260.626-1331.13 260.725-1331.78 260.738-1331.86 260.8-1331.93 260.899-1331.94 260.924-1331.94 261.21-1331.94 261.259-1332.2 261.359-1332.82 261.446-1333.16 261.508-1333.41 261.57-1333.67 261.607-1333.8 261.607-1334.08 261.607-1334.44 261.52-1334.5 261.52-1334.5 261.508-1334.5 261.483-1334.5 261.421-1334.47 261.359-1334.44 261.272-1334.45 261.222-1334.49 261.16-1334.54 261.135-1334.61 261.16-1334.68 261.21-1334.86 261.272-1335.13 261.284-1335.5 261.321-1336.96 260.874-1338.25 259.992-1339.15 259.247-1339.9 258.265-1340.33 257.209-1340.33 256.153-1340.33 255.172-1339.9 254.426-1339.15 253.557-1338.25 253.097-1336.96 253.134-1335.5 253.147-1335.13 253.209-1334.86 253.258-1334.68 253.283-1334.61 253.258-1334.54 253.196-1334.49 253.134-1334.44 253.06-1334.44 252.985-1334.47 252.935-1334.51 252.898-1334.51 252.898-1334.5 252.898-1334.5 252.811-1334.44 252.811-1334.08 252.811-1333.8 252.848-1333.68 252.911-1333.42 252.973-1333.17 253.06-1332.83 253.159-1332.21 253.196-1331.95 253.494-1331.95 253.507-1331.95Z" fill="#4F595B" fill-rule="nonzero" fill-opacity="1" transform="matrix(1 0 0 1.01818 1160 423.406)"/><path d="M257.296-1328.46C256.973-1328.46 256.638-1328.52 256.34-1328.65L254.501-1329.65C254.451-1329.68 254.439-1329.74 254.464-1329.79 254.488-1329.84 254.55-1329.85 254.6-1329.83L256.439-1328.83C257.023-1328.6 257.706-1328.61 258.29-1328.87L259.831-1329.83C259.88-1329.85 259.942-1329.84 259.967-1329.79 259.992-1329.74 259.98-1329.68 259.93-1329.65L258.377-1328.7C258.377-1328.7 258.365-1328.7 258.365-1328.7 258.017-1328.54 257.656-1328.46 257.296-1328.46" fill="#4F595B" fill-rule="nonzero" fill-opacity="1" transform="matrix(1 0 0 1.01818 1160 423.406)"/><path d="M257.296-1328.37C256.948-1328.37 256.625-1328.44 256.302-1328.56L254.451-1329.57C254.401-1329.59 254.377-1329.63 254.364-1329.68 254.352-1329.73 254.352-1329.78 254.377-1329.81 254.426-1329.9 254.538-1329.94 254.625-1329.89L256.464-1328.9C257.023-1328.67 257.669-1328.68 258.24-1328.95L259.768-1329.89C259.806-1329.91 259.855-1329.93 259.905-1329.91 259.955-1329.9 259.992-1329.88 260.017-1329.83 260.042-1329.79 260.054-1329.74 260.042-1329.69 260.029-1329.64 260.005-1329.6 259.955-1329.58L258.389-1328.61C258.054-1328.46 257.669-1328.37 257.296-1328.37M254.55-1329.75 254.526-1329.74 256.377-1328.73C256.973-1328.5 257.719-1328.51 258.315-1328.78L259.868-1329.74 259.806-1329.84 259.855-1329.77 258.315-1328.81C257.694-1328.54 256.998-1328.52 256.389-1328.76L254.55-1329.75Z" fill="#4F595B" fill-rule="nonzero" fill-opacity="1" transform="matrix(1 0 0 1.01818 1160 423.406)"/><path d="M255.37-1319.04C255.321-1319.04 255.283-1319.07 255.271-1319.12L253.42-1327.07C253.408-1327.12 253.445-1327.18 253.494-1327.19 253.544-1327.21 253.606-1327.17 253.619-1327.12L255.47-1319.17C255.482-1319.12 255.445-1319.06 255.395-1319.04 255.395-1319.04 255.383-1319.04 255.37-1319.04" fill="#4F595B" fill-rule="nonzero" fill-opacity="1" transform="matrix(1 0 0 1.01818 1160 423.406)"/><path d="M255.37-1318.96C255.283-1318.96 255.209-1319.02 255.184-1319.09L253.333-1327.04C253.308-1327.14 253.37-1327.24 253.47-1327.27 253.569-1327.29 253.668-1327.23 253.693-1327.13L255.544-1319.18C255.557-1319.13 255.544-1319.08 255.52-1319.04 255.495-1319.01 255.457-1318.97 255.408-1318.96 255.408-1318.96 255.395-1318.96 255.37-1318.96M253.532-1327.08 253.507-1327.07 255.37-1319.12 253.532-1327.08Z" fill="#4F595B" fill-rule="nonzero" fill-opacity="1" transform="matrix(1 0 0 1.01818 1160 423.406)"/><path d="M259.644-1319.13C259.644-1319.13 259.632-1319.13 259.619-1319.13 259.57-1319.14 259.532-1319.19 259.545-1319.24L261.135-1327.01C261.147-1327.06 261.197-1327.09 261.247-1327.08 261.297-1327.07 261.334-1327.02 261.321-1326.97L259.731-1319.2C259.731-1319.17 259.694-1319.13 259.644-1319.13" fill="#4F595B" fill-rule="nonzero" fill-opacity="1" transform="matrix(1 0 0 1.01818 1160 423.406)"/><path d="M259.644-1319.04 259.607-1319.04C259.557-1319.06 259.52-1319.08 259.483-1319.13 259.458-1319.17 259.445-1319.22 259.458-1319.27L261.048-1327.03C261.073-1327.13 261.16-1327.19 261.272-1327.18 261.321-1327.17 261.359-1327.14 261.384-1327.11 261.408-1327.07 261.421-1327.02 261.408-1326.97L259.818-1319.2C259.806-1319.11 259.731-1319.04 259.644-1319.04M261.222-1326.99 259.632-1319.23 259.632-1319.13 259.657-1319.22C259.657-1319.22 259.669-1319.22 259.669-1319.23L261.259-1326.99 261.222-1326.99Z" fill="#4F595B" fill-rule="nonzero" fill-opacity="1" transform="matrix(1 0 0 1.01818 1160 423.406)"/><path d="M268.49-1319.24 259.619-1319.13 261.135-1327.01 263.023-1326.63 264.477-1326.47 265.794-1326.11 266.303-1325.63 266.775-1325.29" fill="#4F595B" fill-rule="nonzero" fill-opacity="1" transform="matrix(1 0 0 1.01818 1160 423.406)"/><path d="M253.557-1326.98 255.271-1319.25 246.276-1319.23 247.904-1324.98 248.96-1325.95 250.774-1326.44" fill="#4F595B" fill-rule="nonzero" fill-opacity="1" transform="matrix(1 0 0 1.01818 1160 423.406)"/><path d="M260.924-1319.13C260.887-1319.13 260.862-1319.14 260.849-1319.17 260.837-1319.19 260.824-1319.22 260.837-1319.25L262.278-1324.32C262.502-1325.22 263.185-1325.91 264.092-1326.14 264.614-1326.27 265.21-1326.41 265.806-1326.53 266.639-1326.72 267.484-1326.91 268.13-1327.11 268.676-1327.27 269.061-1327.76 269.061-1328.34L269.061-1329.57 268.912-1329.73C268.465-1330.22 268.167-1330.83 268.055-1331.5 267.856-1331.53 267.583-1331.65 267.521-1331.99 267.422-1332.59 267.347-1332.91 267.285-1333.14 267.223-1333.41 267.173-1333.57 267.173-1333.86 267.173-1334.21 267.248-1334.42 267.397-1334.51 267.446-1334.54 267.496-1334.56 267.583-1334.55 267.546-1334.72 267.508-1334.96 267.496-1335.24 267.459-1336.73 267.931-1338.08 268.838-1339.01 269.621-1339.8 270.652-1340.25 271.757-1340.25 272.863-1340.25 273.894-1339.8 274.677-1339.01 275.584-1338.08 276.056-1336.73 276.019-1335.24 276.006-1334.96 275.969-1334.72 275.932-1334.55 276.006-1334.56 276.068-1334.54 276.118-1334.51 276.267-1334.42 276.342-1334.2 276.342-1333.86 276.342-1333.57 276.304-1333.41 276.23-1333.14 276.168-1332.91 276.081-1332.59 275.981-1331.99 275.932-1331.65 275.646-1331.53 275.447-1331.5 275.335-1330.85 275.037-1330.24 274.59-1329.73L274.441-1329.57 274.441-1328.34C274.441-1327.76 274.826-1327.26 275.373-1327.11 275.957-1326.93 276.814-1326.78 277.634-1326.65 278.367-1326.52 279.125-1326.39 279.696-1326.24 280.591-1326.01 281.286-1325.3 281.51-1324.41L283.026-1319.27C283.038-1319.24 283.026-1319.2 283.013-1319.18 283.001-1319.16 282.964-1319.14 282.939-1319.14L260.924-1319.13ZM268.117-1331.69C268.167-1331.69 268.204-1331.65 268.217-1331.6 268.316-1330.95 268.602-1330.35 269.037-1329.85L269.211-1329.67C269.223-1329.65 269.235-1329.63 269.235-1329.6L269.235-1328.34C269.235-1327.68 268.801-1327.09 268.167-1326.92 267.521-1326.73 266.664-1326.53 265.831-1326.35 265.247-1326.22 264.639-1326.08 264.129-1325.95 263.297-1325.74 262.663-1325.09 262.452-1324.27L261.048-1319.33 282.79-1319.34 281.311-1324.36C281.112-1325.19 280.466-1325.83 279.634-1326.04 279.063-1326.19 278.305-1326.32 277.584-1326.45 276.764-1326.6 275.907-1326.75 275.311-1326.92 274.689-1327.11 274.242-1327.69 274.242-1328.34L274.242-1329.6C274.242-1329.63 274.255-1329.65 274.267-1329.67L274.441-1329.85C274.876-1330.35 275.161-1330.95 275.261-1331.6 275.261-1331.65 275.311-1331.68 275.36-1331.69 275.373-1331.69 275.733-1331.69 275.783-1332.01 275.882-1332.62 275.969-1332.95 276.031-1333.18 276.093-1333.44 276.131-1333.58 276.131-1333.85 276.131-1334.23 276.044-1334.31 275.994-1334.34 275.944-1334.36 275.87-1334.34 275.82-1334.31 275.783-1334.3 275.745-1334.3 275.708-1334.32 275.683-1334.35 275.671-1334.39 275.671-1334.42 275.721-1334.6 275.783-1334.87 275.795-1335.24 275.832-1336.69 275.385-1337.98 274.515-1338.87 273.77-1339.63 272.789-1340.05 271.733-1340.05 270.677-1340.05 269.695-1339.63 268.95-1338.87 268.08-1337.98 267.633-1336.7 267.67-1335.24 267.682-1334.87 267.745-1334.6 267.794-1334.42 267.807-1334.39 267.794-1334.35 267.757-1334.32 267.732-1334.3 267.682-1334.3 267.645-1334.31 267.595-1334.34 267.521-1334.37 267.471-1334.34 267.434-1334.31 267.335-1334.23 267.335-1333.85 267.335-1333.58 267.372-1333.44 267.434-1333.18 267.496-1332.95 267.583-1332.61 267.682-1332.01 267.745-1331.69 268.105-1331.69 268.117-1331.69" fill="#4F595B" fill-rule="nonzero" fill-opacity="1" transform="matrix(1 0 0 1.01818 1160 423.406)"/><path d="M260.924-1319.04 260.924-1319.04C260.874-1319.04 260.812-1319.07 260.775-1319.12 260.738-1319.17 260.725-1319.22 260.75-1319.28L262.191-1324.35C262.415-1325.27 263.135-1325.99 264.055-1326.22 264.576-1326.36 265.185-1326.5 265.769-1326.62L265.794-1326.62C266.614-1326.81 267.459-1326.99 268.092-1327.18 268.602-1327.33 268.95-1327.8 268.95-1328.34L268.95-1329.54 268.825-1329.68C268.378-1330.18 268.08-1330.78 267.956-1331.43 267.72-1331.48 267.471-1331.64 267.422-1331.96 267.322-1332.55 267.248-1332.87 267.185-1333.11 267.111-1333.38 267.074-1333.54 267.074-1333.85 267.074-1334.23 267.161-1334.47 267.347-1334.57 267.384-1334.6 267.422-1334.61 267.471-1334.62 267.434-1334.82 267.409-1335.02 267.409-1335.23 267.372-1336.75 267.844-1338.11 268.776-1339.06 269.571-1339.88 270.627-1340.33 271.757-1340.33 272.888-1340.33 273.944-1339.88 274.739-1339.06 275.658-1338.11 276.143-1336.76 276.106-1335.23 276.106-1335.02 276.081-1334.82 276.044-1334.62 276.093-1334.61 276.131-1334.6 276.168-1334.57 276.342-1334.47 276.441-1334.23 276.441-1333.85 276.441-1333.54 276.404-1333.38 276.329-1333.12 276.267-1332.88 276.18-1332.57 276.093-1331.98 276.044-1331.65 275.795-1331.49 275.559-1331.44 275.435-1330.78 275.137-1330.19 274.689-1329.69L274.565-1329.55 274.565-1328.35C274.565-1327.81 274.925-1327.34 275.435-1327.19 276.006-1327.03 276.851-1326.88 277.671-1326.73 278.417-1326.6 279.174-1326.47 279.758-1326.32 280.69-1326.09 281.398-1325.37 281.634-1324.45L283.15-1319.3C283.162-1319.25 283.162-1319.19 283.125-1319.14 283.088-1319.09 283.038-1319.07 282.976-1319.07L260.924-1319.04ZM267.533-1334.46C267.496-1334.46 267.459-1334.45 267.422-1334.44 267.297-1334.36 267.235-1334.16 267.235-1333.86 267.235-1333.58 267.272-1333.42 267.335-1333.17 267.397-1332.92 267.484-1332.6 267.583-1332 267.633-1331.67 267.943-1331.6 268.043-1331.59L268.105-1331.58 268.117-1331.52C268.229-1330.87 268.515-1330.27 268.95-1329.79L269.111-1329.6 269.111-1328.34C269.111-1327.73 268.701-1327.19 268.13-1327.02 267.484-1326.83 266.639-1326.65 265.819-1326.46L265.794-1326.46C265.21-1326.32 264.601-1326.19 264.092-1326.06 263.222-1325.84 262.551-1325.17 262.34-1324.3L260.899-1319.23 260.911-1319.13 260.911-1319.22 282.914-1319.23 282.926-1319.24 281.411-1324.39C281.199-1325.26 280.529-1325.93 279.659-1326.15 279.075-1326.3 278.33-1326.42 277.597-1326.56 276.764-1326.71 275.919-1326.86 275.335-1327.03 274.752-1327.19 274.354-1327.74 274.354-1328.35L274.354-1329.62 274.515-1329.8C274.95-1330.29 275.236-1330.88 275.348-1331.53L275.36-1331.59 275.422-1331.6C275.522-1331.62 275.832-1331.68 275.882-1332.01 275.981-1332.62 276.068-1332.95 276.118-1333.18 276.18-1333.44 276.23-1333.59 276.23-1333.88 276.23-1334.19 276.168-1334.39 276.044-1334.45 276.019-1334.46 275.969-1334.47 275.907-1334.47L275.795-1334.46 275.82-1334.57C275.87-1334.78 275.895-1335.01 275.907-1335.24 275.944-1336.72 275.485-1338.03 274.59-1338.95 273.832-1339.73 272.813-1340.16 271.733-1340.16 270.652-1340.16 269.633-1339.73 268.875-1338.95 267.981-1338.03 267.521-1336.72 267.558-1335.24 267.558-1335.01 267.595-1334.78 267.645-1334.57L267.67-1334.46 267.558-1334.47C267.546-1334.46 267.533-1334.46 267.533-1334.46M260.936-1319.24 262.365-1324.3C262.576-1325.16 263.235-1325.81 264.092-1326.04 264.589-1326.16 265.173-1326.3 265.744-1326.42L265.794-1326.44C266.577-1326.61 267.459-1326.81 268.13-1327.01 268.726-1327.18 269.136-1327.73 269.136-1328.35L269.136-1329.63 268.962-1329.83C268.515-1330.34 268.217-1330.96 268.117-1331.62L268.105-1331.72 268.105-1331.63C268.005-1331.63 267.658-1331.68 267.595-1332.03 267.496-1332.64 267.409-1332.96 267.347-1333.19 267.285-1333.45 267.235-1333.6 267.235-1333.89 267.235-1334.26 267.335-1334.4 267.409-1334.45 267.459-1334.47 267.546-1334.5 267.67-1334.42L267.769-1334.46 267.695-1334.44C267.645-1334.61 267.583-1334.9 267.571-1335.28 267.533-1336.75 267.993-1338.05 268.875-1338.96 269.633-1339.74 270.639-1340.16 271.72-1340.16 272.789-1340.16 273.807-1339.73 274.565-1338.96 275.447-1338.05 275.907-1336.73 275.87-1335.28 275.857-1334.91 275.795-1334.61 275.745-1334.44L275.77-1334.42C275.87-1334.47 275.957-1334.49 276.031-1334.45 276.106-1334.4 276.205-1334.27 276.205-1333.89 276.205-1333.6 276.168-1333.45 276.106-1333.21 276.044-1332.97 275.957-1332.65 275.857-1332.04 275.808-1331.73 275.522-1331.64 275.348-1331.64 275.348-1331.64 275.335-1331.64 275.335-1331.63 275.236-1330.96 274.95-1330.34 274.491-1329.84L274.317-1329.65 274.317-1328.37C274.317-1327.75 274.727-1327.21 275.323-1327.03 275.919-1326.86 276.764-1326.71 277.584-1326.56 278.317-1326.44 279.063-1326.3 279.646-1326.15 280.504-1325.93 281.175-1325.27 281.386-1324.41L282.889-1319.29 282.777-1319.29 260.936-1319.24ZM268.117-1331.78C268.204-1331.78 268.279-1331.72 268.291-1331.63 268.391-1330.99 268.664-1330.4 269.086-1329.93L269.26-1329.74C269.285-1329.7 269.31-1329.67 269.31-1329.62L269.31-1328.34C269.31-1327.64 268.85-1327.03 268.179-1326.83 267.508-1326.65 266.626-1326.44 265.831-1326.26L265.782-1326.25C265.21-1326.12 264.626-1325.99 264.129-1325.86 263.334-1325.67 262.713-1325.04 262.514-1324.25L261.147-1319.4 282.665-1319.42 281.212-1324.34C281.013-1325.13 280.392-1325.75 279.597-1325.96 279.025-1326.11 278.267-1326.24 277.547-1326.37 276.714-1326.52 275.87-1326.67 275.261-1326.85 274.602-1327.03 274.13-1327.65 274.13-1328.35L274.13-1329.63C274.13-1329.67 274.143-1329.72 274.18-1329.75L274.354-1329.94C274.776-1330.42 275.062-1331.01 275.149-1331.64 275.161-1331.73 275.224-1331.78 275.323-1331.79 275.348-1331.79 275.634-1331.79 275.671-1332.05 275.77-1332.66 275.857-1333 275.919-1333.23 275.981-1333.48 276.019-1333.62 276.019-1333.88 276.019-1334.24 275.932-1334.29 275.932-1334.29 275.919-1334.29 275.895-1334.29 275.845-1334.26 275.783-1334.23 275.708-1334.24 275.646-1334.27 275.584-1334.32 275.559-1334.4 275.584-1334.46 275.634-1334.62 275.696-1334.9 275.696-1335.26 275.733-1336.67 275.286-1337.94 274.441-1338.82 273.72-1339.57 272.751-1339.98 271.72-1339.98 270.689-1339.98 269.732-1339.57 268.999-1338.82 268.142-1337.94 267.695-1336.69 267.745-1335.26 267.757-1334.9 267.819-1334.62 267.869-1334.46 267.894-1334.39 267.869-1334.31 267.807-1334.26 267.757-1334.21 267.67-1334.21 267.608-1334.25 267.558-1334.29 267.521-1334.29 267.521-1334.27 267.521-1334.27 267.434-1334.21 267.434-1333.86 267.434-1333.6 267.471-1333.47 267.533-1333.22 267.595-1332.98 267.682-1332.65 267.782-1332.04 267.819-1331.78 268.105-1331.78 268.117-1331.78Z" fill="#4F595B" fill-rule="nonzero" fill-opacity="1" transform="matrix(1 0 0 1.01818 1160 423.406)"/><path d="M271.832-1328.36C271.509-1328.36 271.198-1328.42 270.888-1328.54L269.086-1329.52C269.037-1329.54 269.024-1329.6 269.049-1329.64 269.074-1329.69 269.136-1329.7 269.186-1329.68L270.975-1328.7C271.546-1328.47 272.205-1328.49 272.789-1328.73L274.292-1329.67C274.342-1329.69 274.391-1329.68 274.428-1329.64 274.453-1329.59 274.441-1329.54 274.391-1329.5L272.876-1328.57C272.876-1328.57 272.863-1328.57 272.863-1328.57 272.54-1328.44 272.18-1328.36 271.832-1328.36" fill="#4F595B" fill-rule="nonzero" fill-opacity="1" transform="matrix(1 0 0 1.01818 1160 423.406)"/><path d="M271.832-1328.27C271.496-1328.27 271.173-1328.34 270.863-1328.46L269.049-1329.44C269.012-1329.47 268.974-1329.5 268.962-1329.55 268.95-1329.6 268.95-1329.65 268.974-1329.69 269.024-1329.78 269.124-1329.8 269.223-1329.77L271.012-1328.78C271.559-1328.57 272.192-1328.58 272.751-1328.83L274.255-1329.77C274.292-1329.79 274.342-1329.8 274.391-1329.79 274.441-1329.78 274.478-1329.75 274.503-1329.7 274.528-1329.67 274.54-1329.62 274.528-1329.57 274.515-1329.52 274.491-1329.48 274.441-1329.45L272.913-1328.51C272.565-1328.35 272.192-1328.27 271.832-1328.27M269.136-1329.62 269.111-1329.6 270.925-1328.61C271.521-1328.37 272.229-1328.39 272.826-1328.66L274.342-1329.59 274.279-1329.69 274.329-1329.62 272.826-1328.68C272.217-1328.41 271.534-1328.4 270.937-1328.63L269.136-1329.62Z" fill="#4F595B" fill-rule="nonzero" fill-opacity="1" transform="matrix(1 0 0 1.01818 1160 423.406)"/><path d="M268.813-1319.12C268.776-1319.12 268.738-1319.14 268.726-1319.18L267.136-1326C267.123-1326.05 267.148-1326.09 267.198-1326.1 267.248-1326.11 267.285-1326.08 267.297-1326.04L268.888-1319.22C268.9-1319.17 268.875-1319.13 268.825-1319.12 268.825-1319.12 268.813-1319.12 268.813-1319.12" fill="#4F595B" fill-rule="nonzero" fill-opacity="1" transform="matrix(1 0 0 1.01818 1160 423.406)"/><path d="M268.813-1319.06C268.738-1319.06 268.676-1319.11 268.664-1319.18L267.074-1326C267.049-1326.09 267.111-1326.17 267.185-1326.19 267.272-1326.21 267.359-1326.15 267.372-1326.06L268.962-1319.24C268.974-1319.2 268.962-1319.16 268.937-1319.12 268.912-1319.08 268.875-1319.06 268.838-1319.04 268.838-1319.06 268.825-1319.06 268.813-1319.06M267.235-1326.03 267.21-1326.03 268.813-1319.19 267.235-1326.03Z" fill="#4F595B" fill-rule="nonzero" fill-opacity="1" transform="matrix(1 0 0 1.01818 1160 423.406)"/><path d="M274.118-1319.23C274.105-1319.23 274.105-1319.23 274.093-1319.23 274.043-1319.24 274.006-1319.29 274.019-1319.34L275.572-1326.93C275.584-1326.98 275.634-1327.02 275.683-1327.01 275.733-1326.99 275.77-1326.94 275.758-1326.9L274.205-1319.3C274.205-1319.25 274.168-1319.23 274.118-1319.23" fill="#4F595B" fill-rule="nonzero" fill-opacity="1" transform="matrix(1 0 0 1.01818 1160 423.406)"/><path d="M274.118-1319.14 274.081-1319.14C274.031-1319.16 273.994-1319.18 273.969-1319.22 273.944-1319.25 273.932-1319.3 273.944-1319.35L275.497-1326.94C275.522-1327.04 275.609-1327.11 275.708-1327.08 275.758-1327.07 275.795-1327.04 275.82-1327.01 275.845-1326.97 275.857-1326.92 275.845-1326.87L274.279-1319.28C274.279-1319.2 274.205-1319.14 274.118-1319.14M275.671-1326.92 274.105-1319.33 274.105-1319.23 274.13-1319.32C274.13-1319.32 274.143-1319.32 274.143-1319.33L275.708-1326.92 275.671-1326.92Z" fill="#4F595B" fill-rule="nonzero" fill-opacity="1" transform="matrix(1 0 0 1.01818 1160 423.406)"/><path d="M282.79-1319.33 274.105-1319.23 275.584-1326.93 277.435-1326.56 278.851-1326.41 280.143-1326.06 280.64-1325.59 281.1-1325.26" fill="#4F595B" fill-rule="nonzero" fill-opacity="1" transform="matrix(1 0 0 1.01818 1160 423.406)"/><path d="M267.248-1325.95 268.714-1319.3 261.011-1319.29 262.402-1324.22 263.309-1325.06 264.862-1325.48" fill="#4F595B" fill-rule="nonzero" fill-opacity="1" transform="matrix(1 0 0 1.01818 1160 423.406)"/><path d="M275.857-1326.17 271.919-1324.4 268.155-1326.92 267.645-1321.88 268.403-1319.4 277.944-1319.4" fill="#4F595B" fill-rule="nonzero" fill-opacity="1" transform="matrix(1 0 0 1.01818 1160 423.406)"/><path d="M261.421-1326.96 257.197-1325.04 253.345-1327.04 253.345-1319.22 261.657-1319.22" fill="#4F595B" fill-rule="nonzero" fill-opacity="1" transform="matrix(1 0 0 1.01818 1160 423.406)"/><path d="M268.813-1323.81 268.155-1326.92 265.322-1326.29 263.558-1323.81 268.726-1319.17Z" fill="#4F595B" fill-rule="nonzero" fill-opacity="1" transform="matrix(1 0 0 1.01818 1160 423.406)"/><path d="M268.167-1312.45 248.04-1312.45C247.804-1312.45 247.606-1312.65 247.606-1312.88L247.606-1313.97C247.606-1314.21 247.804-1314.41 248.04-1314.41L268.167-1314.41C268.403-1314.41 268.602-1314.21 268.602-1313.97L268.602-1312.88C268.602-1312.63 268.403-1312.45 268.167-1312.45" fill="#4F595B" fill-rule="nonzero" fill-opacity="1" transform="matrix(1 0 0 1.01818 1160 423.406)"/><path d="M272.627-1313.71C272.627-1313.17 272.192-1312.73 271.646-1312.73 271.099-1312.73 270.664-1313.17 270.664-1313.71 270.664-1314.26 271.099-1314.69 271.646-1314.69 272.192-1314.69 272.627-1314.26 272.627-1313.71" fill="#4F595B" fill-rule="nonzero" fill-opacity="1" transform="matrix(1 0 0 1.01818 1160 423.406)"/><path d="M26.0029 0.496951 26.0029 0.496951 24.0151 3.87621 26.0029 7.39214 27.1211 7.39214 27.059 11.2062 28.7486 11.2062 28.8107 7.39214 29.9288 7.39214 31.9166 3.93833 29.9288 0.496951 26.0029 0.496951Z" fill="#4E5B5C" fill-rule="nonzero" fill-opacity="1" transform="matrix(1 0 0 1.01818 1160 423.406)"/><path d="M15.3682 22.5491 15.3682 22.5491C15.3682 22.2385 15.6167 21.9901 15.9894 21.9901 16.3 21.9901 16.5485 22.2385 16.5485 22.5491 16.5485 22.8597 16.3 23.1082 15.9894 23.1082 15.6167 23.1206 15.3682 22.8597 15.3682 22.5491ZM17.5424 22.5491C17.5424 22.2385 17.8529 21.9901 18.1635 21.9901 18.4741 21.9901 18.7226 22.2385 18.7226 22.5491 18.7226 22.8597 18.4741 23.1082 18.1635 23.1082 17.8529 23.1206 17.5424 22.8597 17.5424 22.5491ZM19.9029 22.5491C19.9029 22.2385 20.2135 21.9901 20.5241 21.9901 20.8347 21.9901 21.0831 22.2385 21.0831 22.5491 21.0831 22.8597 20.8347 23.1082 20.5241 23.1082 20.2135 23.1206 19.9029 22.8597 19.9029 22.5491ZM35.2835 23.7418 36.1532 22.3007 37.8304 22.3007 38.6379 23.7418 37.8304 25.2451 36.1532 25.2451 35.2835 23.7418ZM13.1816 21.5552 13.1816 26.0029C13.1816 26.4378 13.6164 26.885 14.1755 26.885L41.0605 26.885C41.6196 26.885 42.0544 26.4502 42.0544 26.0029L42.0544 21.5552C42.0544 21.1204 41.6196 20.6731 41.0605 20.6731L14.1755 20.6731C13.6164 20.6731 13.1816 21.108 13.1816 21.5552Z" fill="#6EBE4B" fill-rule="nonzero" fill-opacity="1" transform="matrix(1 0 0 1.01818 1160 423.406)"/><path d="M15.3682 15.8527 15.3682 15.8527C15.3682 15.5421 15.6167 15.2937 15.9894 15.2937 16.3 15.2937 16.5485 15.5421 16.5485 15.8527 16.5485 16.2254 16.3 16.4739 15.9894 16.4739 15.6167 16.4739 15.3682 16.2254 15.3682 15.8527ZM17.5424 15.8527C17.5424 15.5421 17.8529 15.2937 18.1635 15.2937 18.4741 15.2937 18.7226 15.5421 18.7226 15.8527 18.7226 16.2254 18.4741 16.4739 18.1635 16.4739 17.8529 16.4739 17.5424 16.2254 17.5424 15.8527ZM19.9029 15.8527C19.9029 15.5421 20.2135 15.2937 20.5241 15.2937 20.8347 15.2937 21.0831 15.5421 21.0831 15.8527 21.0831 16.2254 20.8347 16.4739 20.5241 16.4739 20.2135 16.4739 19.9029 16.2254 19.9029 15.8527ZM35.2835 16.7224 36.1532 15.2812 37.8304 15.2812 38.6379 16.7224 37.8304 18.2257 36.1532 18.2257 35.2835 16.7224ZM13.1816 14.5358 13.1816 18.9835C13.1816 19.4183 13.6164 19.8656 14.1755 19.8656L41.0605 19.8656C41.6196 19.8656 42.0544 19.4308 42.0544 18.9835L42.0544 14.5358C42.0544 14.101 41.6196 13.6537 41.0605 13.6537L14.1755 13.6537C13.6164 13.6537 13.1816 14.0885 13.1816 14.5358Z" fill="#6EBE4B" fill-rule="nonzero" fill-opacity="1" transform="matrix(1 0 0 1.01818 1160 423.406)"/><path d="M27.4317 29.6307 27.4317 29.6307 27.3696 33.5193 26.2514 33.4572 24.2015 36.8986 26.1893 40.4145 30.1152 40.4766 32.1651 37.0228 30.1773 33.5193 29.0592 33.5193 29.1213 29.6307" fill="#4E5B5C" fill-rule="nonzero" fill-opacity="1" transform="matrix(1 0 0 1.01818 1160 423.406)"/><path d="M43.8683 20.2383 43.8683 20.2383 47.7197 20.2383 47.7197 21.3564 51.2108 23.2449 54.6273 21.1701 54.503 17.1696 51.0244 15.2812 47.6576 17.356 47.6576 18.5487 43.8683 18.5487" fill="#4E5B5C" fill-rule="nonzero" fill-opacity="1" transform="matrix(1 0 0 1.01818 1160 423.406)"/><path d="M11.3802 19.4805 11.3802 19.4805 7.5288 19.4805 7.5288 18.3499 4.03772 16.4118 0.683307 18.4741 0.745426 22.487 4.16196 24.3754 7.59092 22.3628 7.59092 21.1701 11.3802 21.1701" fill="#4E5B5C" fill-rule="nonzero" fill-opacity="1" transform="matrix(1 0 0 1.01818 1160 423.406)"/></g></g></g></g></svg>